<svg xmlns="http://www.w3.org/2000/svg" width="24.72" height="27.466" viewBox="0 0 24.72 27.466">
  <path id="agendaIcon" d="M.009,9.3A7.288,7.288,0,0,1,1.158,4.983l.214-.312.018-.017.148-.174h0L1.694,4.3l.018-.018a5.626,5.626,0,0,1,.98-.8l.1-.063h0l.1-.059.236-.136c.1-.045.2-.1.295-.144.07-.027.139-.062.209-.089.131-.055.27-.109.409-.154a.712.712,0,0,1,.147-.054l.056-.023h0L4.3,2.738a9.938,9.938,0,0,1,1.944-.38l-.068.008V1A.989.989,0,1,1,8.157,1V5.318a.989.989,0,1,1-1.978,0v-1A6.511,6.511,0,0,0,4.29,4.8c-1.559.7-2.3,2.037-2.373,4.153L1.912,9.3v.532h20.9V9.282a6.057,6.057,0,0,0-.574-2.837A3.616,3.616,0,0,0,20.42,4.788a6.3,6.3,0,0,0-1.537-.441l-.343-.042V5.313a.989.989,0,0,1-1.978,0V4.231h-8.4V2.268h8.4V.994A.989.989,0,0,1,18.54.98V2.359a9.539,9.539,0,0,1,1.424.251l.466.132a.773.773,0,0,1,.118.035c.052.018.1.037.147.054.138.045.266.1.4.154.076.027.147.062.207.089.1.045.21.1.295.144s.171.1.244.136.13.086.191.122a5.949,5.949,0,0,1,.757.58l.231.22.011.018.162.171h0l.152.181.008.017A7.271,7.271,0,0,1,24.72,8.913l-.01.383v.532h.01V20.476c0,4.644-2.593,6.99-7.733,6.99H7.721C2.593,27.466,0,25.12,0,20.476H0V9.827H.009Zm18,10.264a1.152,1.152,0,0,0-1.143,1.167A1.167,1.167,0,0,0,18.012,21.9a1.168,1.168,0,0,0,0-2.334Zm-5.647-.012a1.173,1.173,0,0,0,0,2.346A1.153,1.153,0,0,0,13.5,20.719a1.174,1.174,0,0,0-1.132-1.167Zm-5.658,0a1.174,1.174,0,0,0,0,2.346,1.174,1.174,0,0,0,0-2.346Zm11.3-4.972a1.168,1.168,0,1,0,1.132,1.167A1.143,1.143,0,0,0,18.012,14.58Zm-5.647-.012a1.174,1.174,0,0,0,0,2.346A1.153,1.153,0,0,0,13.5,15.735a1.166,1.166,0,0,0-1.132-1.167Zm-5.646,0a1.163,1.163,0,0,0-1.143,1.179,1.132,1.132,0,1,0,1.143-1.179Z" transform="translate(0 0)" fill="#1c2641"/>
</svg>
