<svg xmlns="http://www.w3.org/2000/svg" width="99" height="99" viewBox="0 0 99 99">
  <g id="casabanho" transform="translate(-284.588 -142.059)">
    <path id="Retângulo_88" data-name="Retângulo 88" d="M10.589,0H88.411A10.589,10.589,0,0,1,99,10.589V88.411A10.588,10.588,0,0,1,88.411,99H10.588A10.588,10.588,0,0,1,0,88.412V10.589A10.589,10.589,0,0,1,10.589,0Z" transform="translate(284.588 142.059)" fill="#ff68b5"/>
    <path id="Caminho_636" data-name="Caminho 636" d="M348.806,174.186H358.1a1.956,1.956,0,0,0,0-3.911H347.961c-.181-.552-.34-.741-.536-.841l-2.117-.8c-1.186-.111-1.285.4-1.285.4.1-2.716-1.753-2.687-2.872-2.687h-6.105c-1.863,0-1.378,2.223-2.5,2.223h-5.622a3.531,3.531,0,0,0-3.314,1.7l.024,0H313.174a1.956,1.956,0,0,0,0,3.911h9.243L312.76,216.6l8.779,2.81c4.359,1.15,8.479.366,8.92-2.022l.576-3.229c2.507,1.565,4.689,3.1,7.021,3.1,2.393,0,3.358-1.858,5.631-2.427s5.512,1.394,7.219,1.4c3.789,0,5.536-1.4,5.174-4.273Zm2.719,27.334.022.006-.014.031-.007-.036a10.382,10.382,0,0,0-4.6-.023c-5.958,1.7-6.978,4.823-9.246,4.823-3.459,0-3.471-2.3-7.827-3.914a8.349,8.349,0,0,0-3.676-.362l0,.012-.017-.01a.064.064,0,0,0,.019,0l.389-1.405-.015-.032a8.184,8.184,0,0,1,1.584-.131c4.744.093,5.562,3.828,9.029,3.618,2.779-.171,4.736-3.2,9.55-4.171a10.137,10.137,0,0,1,4.5-.05l0,.018Zm-16.582-31.07c.246-.669.466-1.586,1.443-1.586h4.159c.824,0,1.344.712,1.1,2.685a1.252,1.252,0,0,0,2.38.545c.2-.47.548-1.039,1.128-1l.377.155c.26.094.268.561.459,1.427l4.735,24.659,0,.032a7.522,7.522,0,0,0-4.238.07c-6.054,1.871-6.5,3.971-9.165,4.141-3.327.21-4.109-3.539-8.663-3.629a7.1,7.1,0,0,0-1.373.108l-.022.025Zm-16.509,32.563,6.872-30.192c.6-1.732,1.608-1.733,2.919-1.733h3.949l-9.493,34.258,0,.033a25.884,25.884,0,0,1-4.245-2.362Zm-.551,2.438a30.643,30.643,0,0,0,4.107,2.408l-.362,1.32.011.006a19.468,19.468,0,0,1-4.142-1.939l-.018-.024Zm3.358,11.239-5.513-1.768.75-3.3a20.677,20.677,0,0,0,4.394,1.605,2.416,2.416,0,0,0,.286.627c1.829,2.6,6.9.992,6.863,2.8C328.007,217.5,325.377,217.756,321.241,216.689Zm7.295-2.81a39.811,39.811,0,0,0-4.563-.655.786.786,0,0,1-.626-.893c.2-.994.754-1.624,3.944-.228.5.219.988.458,1.46.71Zm12.929-.749.007,0c-1.069.737-1.817,1.613-3.424,1.613-3.366,0-6.371-3.981-10.71-5.482a7.083,7.083,0,0,0-3.026-.413l.677-2.538a3.08,3.08,0,0,1,1.912-.274c1.588.225,2.5.232,6.3,3.289,1.758,1.418,3.718,2.179,4.65,1.986,1.928-.4,4.651-3.856,7.035-4.936,2.318-1.047,3.994-2.368,7.436-.81l-.018,0,.509,2.651.018.01a5.537,5.537,0,0,0-2.33-.41C347.835,207.969,345.887,208.964,341.465,213.13Zm9.927.582c-.93,0-3.41-.94-5.593-1.33a8.261,8.261,0,0,1,4.7-2.033,4.406,4.406,0,0,1,2.859.773C353.667,213.144,353.312,213.713,351.392,213.713Zm-38.218-36.721a4.763,4.763,0,1,1,3.563-7.923h-3.563a3.159,3.159,0,0,0,0,6.319h3.56A4.757,4.757,0,0,1,313.174,176.992Zm49.687-4.762a4.761,4.761,0,0,1-8.324,3.158H358.1a3.159,3.159,0,0,0,0-6.319h-3.566a4.764,4.764,0,0,1,8.328,3.161Z" transform="translate(-1.549 -1.579)" fill="#fff"/>
  </g>
</svg>
