<svg xmlns="http://www.w3.org/2000/svg" width="354.844" height="310.879" viewBox="0 0 354.844 310.879"><g transform="translate(0 0)"><path d="M585.627,648.453a1.388,1.388,0,0,1-1.006-2.406l.1-.378-.038-.091a3.728,3.728,0,0,0-6.876.026c-1.125,2.709-2.556,5.422-2.909,8.286a11.027,11.027,0,0,0,.194,3.793,44.211,44.211,0,0,1-4.022-18.363,42.661,42.661,0,0,1,.265-4.761q.219-1.944.608-3.86a44.725,44.725,0,0,1,8.869-18.955,11.9,11.9,0,0,0,4.95-5.136,9.076,9.076,0,0,0,.826-2.481c-.241.032-.909-3.639-.727-3.864-.336-.51-.937-.763-1.3-1.26-1.824-2.473-4.337-2.041-5.649,1.319-2.8,1.415-2.83,3.761-1.11,6.017,1.094,1.435,1.245,3.378,2.2,4.915-.1.126-.2.249-.3.375a45.009,45.009,0,0,0-4.7,7.443,18.712,18.712,0,0,0-1.117-8.692c-1.069-2.58-3.074-4.752-4.839-6.982a3.841,3.841,0,0,0-6.841,1.886q-.005.049-.011.1.393.222.77.471a1.883,1.883,0,0,1-.759,3.427l-.039.006a18.749,18.749,0,0,0,.494,2.8c-2.264,8.757,2.624,11.946,9.6,12.089.154.079.3.158.458.233a45.943,45.943,0,0,0-2.473,11.639,43.576,43.576,0,0,0,.032,7.036l-.012-.083a11.515,11.515,0,0,0-3.931-6.649c-3.025-2.485-7.3-3.4-10.562-5.4a2.161,2.161,0,0,0-3.31,2.1l.013.087a12.634,12.634,0,0,1,1.418.683q.393.222.77.471a1.883,1.883,0,0,1-.759,3.426l-.039.006-.079.012a18.75,18.75,0,0,0,3.449,5.4c1.416,7.644,7.5,8.369,14,6.143h0a45.933,45.933,0,0,0,3.086,9.008h11.022c.04-.122.075-.249.111-.371a12.527,12.527,0,0,1-3.05-.182c.818-1,1.636-2.015,2.453-3.018a.71.71,0,0,0,.051-.059c.415-.513.834-1.023,1.248-1.537h0a18.348,18.348,0,0,0-.537-4.673Z" transform="translate(-392.089 -348.58)" fill="#f2f2f2"/><path d="M522.32,219.723a62.794,62.794,0,1,1,62.794-62.794,62.794,62.794,0,0,1-62.794,62.794Zm0-124.6a61.8,61.8,0,1,0,61.8,61.8,61.8,61.8,0,0,0-61.8-61.8Z" transform="translate(-345.113 -94.136)" fill="#f2f2f2"/><path d="M584.283,262.08h-13.35a2.472,2.472,0,1,1,0-4.944h13.35a2.472,2.472,0,0,1,0,4.944Z" transform="translate(-400.186 -176.543)" fill="#e6e6e6"/><path d="M583.052,404.875H563.568a3.608,3.608,0,0,1,0-7.216h19.484a3.608,3.608,0,1,1,0,7.216Z" transform="translate(-395.888 -247.585)" fill="#41b5dc"/><path d="M581.02,333.011H450.772a4.382,4.382,0,0,1-4.377-4.377V289.8a4.382,4.382,0,0,1,4.377-4.377H581.02A4.382,4.382,0,0,1,585.4,289.8v38.83A4.382,4.382,0,0,1,581.02,333.011Z" transform="translate(-338.474 -190.845)" fill="#e6e6e6"/><path d="M571.384,333.08H456.745a4.382,4.382,0,0,1-4.377-4.377V295.779a4.382,4.382,0,0,1,4.377-4.377H581.087a4.383,4.383,0,0,1,4.377,4.377V319A14.1,14.1,0,0,1,571.384,333.08Z" transform="translate(-341.494 -193.866)" fill="#fff"/><path d="M558.419,312.774H506.07a1.129,1.129,0,0,1,0-2.258h52.35a1.129,1.129,0,0,1,0,2.258Z" transform="translate(-368.072 -203.53)" fill="#41b5dc"/><path d="M584.92,322.113H506.07a1.129,1.129,0,1,1,0-2.258h78.85a1.129,1.129,0,0,1,0,2.258Z" transform="translate(-368.072 -208.251)" fill="#e6e6e6"/><path d="M584.92,332.832H506.07a1.129,1.129,0,0,1,0-2.258h78.85a1.129,1.129,0,0,1,0,2.258Z" transform="translate(-368.072 -213.67)" fill="#e6e6e6"/><path d="M584.92,343.552H506.07a1.129,1.129,0,0,1,0-2.258h78.85a1.129,1.129,0,0,1,0,2.258Z" transform="translate(-368.072 -219.09)" fill="#e6e6e6"/><path d="M584.92,354.271H506.07a1.129,1.129,0,0,1,0-2.258h78.85a1.129,1.129,0,0,1,0,2.258Z" transform="translate(-368.072 -224.509)" fill="#e6e6e6"/><path d="M570.705,594.967h-5.291L562.9,574.558h7.81Z" transform="translate(-284.579 -290.474)" fill="#a0616a"/><path d="M790.555,712.144H774.283v-.206a6.334,6.334,0,0,1,6.333-6.333h0l2.972-2.255,5.545,2.255h1.42Z" transform="translate(-504.242 -402.131)" fill="#2f2e41"/><path d="M649.76,583.434l-4.741,2.349L633.7,568.612l7-3.466Z" transform="translate(-320.376 -285.716)" fill="#a0616a"/><path d="M883.923,700.115l-14.58,7.223-.091-.184a6.334,6.334,0,0,1,2.863-8.486h0l1.662-3.34,5.97-.441,1.273-.631Z" transform="translate(-551.921 -397.533)" fill="#2f2e41"/><path d="M771.787,485.469s-6.023,8.4-1.675,22.9,1.907,27.475,3.127,30.076,3.677,5.07,1.647,7.042-3.1,3.575-1.5,4.109,6.947,37.943,6.947,37.943l9.085.534s3.291-17.377-.225-31.4c0,0,.772-10.181-.838-13.171s-1.294-.293-1.185-4.047a32.957,32.957,0,0,1,1.178-8.029c.534-2.138.844-23.682.844-23.682l8.844,28.591a7.117,7.117,0,0,1,.39,3.079,13.227,13.227,0,0,0,.047,4.444,3.793,3.793,0,0,1,.417,2.454c-.149,1.522,17.65,33.612,17.65,33.612l8.844-5.933-8.713-28.134a13.233,13.233,0,0,1-2.138-3.207c-1.069-2.138-1.11-2.255-.555-3.8a20.471,20.471,0,0,0,.555-5.453c0-.9.555-41.781-6.4-47.794S771.787,485.469,771.787,485.469Z" transform="translate(-501.336 -290.678)" fill="#2f2e41"/><path d="M804.958,345.121l-1.811-5.154-4.944-4.944-9.12-1.089-5.937,3.9-5.5,5.421-8.121,67.414s38.36,14.79,43.386,2.378Z" transform="translate(-501.837 -215.369)" fill="#ccc"/><path d="M839.5,351.111l-5.328-5.328s-2.545,34.053-1.461,36.448,2.361,1.784.981,3.078-2.863.01-1.38,2.383a7.511,7.511,0,0,1,1.225,4.494s7.675,48.311,12.125,48.311,7.236-1.3,7.079-2.629-2.782-4.629-1.964-5.45,2.835-.2.837-1.747-2.986-1.052-2.492-3.029-3.286-27.617-3.286-27.617l-.369-42.825Z" transform="translate(-533.265 -221.359)" fill="#3f3d56"/><path d="M778.8,341.829l-6.9.976-8.2,3.131s3.747,42.266,2.964,43.681-2.172.531-.983,1.962,2.259.8.983,2.1-3.426-.348-2.1,1.962-5.048,34.124-3.333,35.83,6.134.645,6.136-.616a7.3,7.3,0,0,0-1.481-3.732,1.5,1.5,0,0,1,0-1.978,4.835,4.835,0,0,0,1.381-2.495,13.264,13.264,0,0,1,1.222-3.043c.364-.89,9.532-61.108,9.532-61.108Z" transform="translate(-497.49 -219.36)" fill="#3f3d56"/><path d="M702.933,384.368l3.112-1.625c-3.886-3.5-13.526-9.239-13.526-9.239L675.9,362.3a3.542,3.542,0,1,0-3.679,4.9l18.621,16.683Z" transform="translate(-451.065 -228.62)" fill="#a0616a"/><path d="M742.576,366.454l.034-13.663-7.59-3.63-19.143,20.26-1.483-.989h-3.461l-8.405,9.889s4.477,2.653,6.688,1.574,2,.471,2,.471a2.345,2.345,0,0,0,2.828.665c1.83-.733,5.291,1.245,5.291,1.245Z" transform="translate(-467.964 -223.067)" fill="#3f3d56"/><circle cx="11.069" cy="11.069" r="11.069" transform="translate(281.735 93.289)" fill="#a0616a"/><path d="M821.469,292.691a19.25,19.25,0,0,1-4.141,5.437,4.294,4.294,0,0,1-1.8,1.215,1.57,1.57,0,0,1-1.867-.745l-.205-.28a5.713,5.713,0,0,0,1.657-.819,1.945,1.945,0,0,0,.8-1.589,1.2,1.2,0,0,0-1.221-1.128c-.691.082-1.309.89-1.929.578-.5-.254-.429-.983-.285-1.533.77-2.87.448-7.319-.661-7.475a8.964,8.964,0,0,1-3.1-1.267,8.689,8.689,0,0,0-3.106-1.249c-.08-.01-.161-.016-.246-.023a7.35,7.35,0,0,0-.307-1.745,8.6,8.6,0,0,1-.548,1.743,17.065,17.065,0,0,1-2.893.146c-1.03-.12-3.992,2.281-4.014,1.951a7.35,7.35,0,0,0-.307-1.745,8.609,8.609,0,0,1-.548,1.743c-.011.023-.016.042-.027.065-.315-.768-.4-1.626-.4-.985-.661-4.079.65-6.535,4-8.953a5.052,5.052,0,0,1,2.3-1.032,2.483,2.483,0,0,1,2.284.844,8.153,8.153,0,0,1,8.261.374c2.408,1.613,4.307,2.686,3.987,5.571a6.094,6.094,0,0,1,4.931,4.225A9.2,9.2,0,0,1,821.469,292.691Z" transform="translate(-515.303 -185.523)" fill="#2f2e41"/><path d="M854.544,426.369l-7.941-1.137c-2.686,4.491-3.64,16.444-3.64,16.444l-7.772,18.471a3.542,3.542,0,1,0,5.521,2.66l12.76-21.5Z" transform="translate(-534.25 -261.525)" fill="#a0616a"/><path d="M838.939,367.1l3.365-4.635,6.823,3.171,5.675,21.89s4.144,2.7,3.26,4.6-1.354,3.437-.44,4.528,3.575,1.17,1.593,2.948-.285,6.421-.285,6.421l-1.9,4.24-11.866-.494Z" transform="translate(-536.929 -229.794)" fill="#3f3d56"/><path d="M278.055,486.817a3.655,3.655,0,0,0,.68-5.052,3.5,3.5,0,0,0-.389-.429l5.067-11.7-5.033-4.66-5.208,16.779a3.645,3.645,0,0,0-.079,4.449,3.488,3.488,0,0,0,4.887.673Z" transform="translate(-250.496 -281.618)" fill="#ffb6b6"/><path d="M307.739,352.562s-3.751-7.13-12.452.57S276.3,399.376,276.5,400.825s2.326.876-.364,2.962-4.177.212-2.69,2.086,4.813,3.86,1.868,4.139,7.851,4.924,7.851,4.924,1.7-.408,2.219-4.326c.293-2.2-.7-3.45,1.047-3.817s.109-4.346.361-4.973,14.188-27.976,14.188-27.976Z" transform="translate(-250.742 -223.266)" fill="#41b5dc"/><path d="M149.917,588.855h6.3l3-24.3h-9.3Z" transform="translate(-75.792 -285.415)" fill="#ffb6b6"/><path d="M377.595,710.428h19.376v-.245a7.542,7.542,0,0,0-7.541-7.542h0l-3.539-2.685-6.6,2.686h-1.691Z" transform="translate(-303.691 -400.415)" fill="#2f2e41"/><path d="M60.6,569.936l5.154,3.624L82.183,555.4l-7.608-5.349Z" transform="translate(-30.635 -278.087)" fill="#ffb6b6"/><path d="M280.709,688.5l15.85,11.145.141-.2a7.542,7.542,0,0,0-1.831-10.507h0l-1.351-4.232-6.946-1.6-1.384-.973Z" transform="translate(-254.71 -391.406)" fill="#2f2e41"/><path d="M313.369,460.627l-.524,1.118a39.938,39.938,0,0,0-2.984,23.577,1.335,1.335,0,0,1-.053.95c-.829.973.472,5.2,1.218,7.559L311.7,498s-1.115,3.876.578,3.591-.828,3.849.787,4.885l4.19,26.009-17.48,28.81,6.474,9.388,25.9-33.342.324-30.1,3.884,24.278.324,38.2,11.778-1.252,4.315-37.033-4.116-51.215-6.474-22.206Z" transform="translate(-264.348 -278.097)" fill="#2f2e41"/><path d="M327.539,328.446l9.528.454,4.556,7.872h0a14.087,14.087,0,0,1,9.01,8.208l2.967,7.33-3.375,42.382s-.677,2.563.569,2.189.738,2.838.738,2.838l4.591,17.659-41.744-3.63,2.318-18.71s-3.223.1-.957-2.162,3.368-1.544,1.191-4.223a11.207,11.207,0,0,1-2.5-4.621l-.971-13.272-1.6-18.678a17.947,17.947,0,0,1,6.78-15.635h0Z" transform="translate(-270.425 -212.594)" fill="#41b5dc"/><circle cx="12.084" cy="12.084" r="12.084" transform="translate(49.971 89.499)" fill="#ffb6b6"/><path d="M335.089,294.274c3.468-.114,3.783-1.03,7.25-1.143,1.1-.036,2.407-.188,2.941-1.155a2.549,2.549,0,0,0-.129-2.268,20.724,20.724,0,0,1-1.068-2.1,3.67,3.67,0,0,1,3.637-4.839c1.055.046,2.046.542,3.1.633,1.443.124,4.634-4.641,3.97-5.928-.647-1.253-1.948-2.2-2.153-3.593a13.843,13.843,0,0,1,.294-2.74c.076-1.365-3.384,1.713-2.751.5,1.555-2.972-13.1-6.657-15.508-2.934-.9,1.391-2.508,1.3-3.94,2.132-.939.548-3.308,2.437-3.847,3.615a9.169,9.169,0,0,0-.686,3.794c-.022,6.041.9,11.6,5.772,15.169" transform="translate(-277.704 -181.598)" fill="#2f2e41"/><path d="M409.148,485.787a3.655,3.655,0,0,1-.377-5.084,3.506,3.506,0,0,1,.414-.405l-4.36-11.982,5.3-4.351,4.2,17.06a3.645,3.645,0,0,1-.187,4.446,3.488,3.488,0,0,1-4.918.38Z" transform="translate(-317.458 -281.107)" fill="#ffb6b6"/><path d="M363.3,348.536s4.17-6.894,12.4,1.312,16.189,47.3,15.9,48.73-2.375.735.186,2.979,4.157.461,2.561,2.243-5.035,3.566-2.112,4.02-8.131,4.446-8.131,4.446-1.671-.508-1.957-4.451c-.161-2.214.9-3.4-.817-3.873s.15-4.345-.063-4.985-12.493-28.773-12.493-28.773Z" transform="translate(-296.465 -221.381)" fill="#41b5dc"/><path d="M586.248,208.3a9.881,9.881,0,1,1-2.9-7A9.891,9.891,0,0,1,586.248,208.3Z" transform="translate(-399.177 -146.852)" fill="#41b5dc"/><circle cx="3.461" cy="3.461" r="3.461" transform="translate(173.937 55.956)" fill="#fff"/><path d="M585.063,223.807h-7.417a1.732,1.732,0,0,0-1.731,1.731,26.2,26.2,0,0,0,.692,4.4,9.882,9.882,0,0,0,9.562-.282,25.935,25.935,0,0,0,.623-4.114,1.732,1.732,0,0,0-1.731-1.731Z" transform="translate(-403.955 -159.693)" fill="#fff"/><path d="M228.126,721.1a.587.587,0,0,0,.588.588H582.381a.588.588,0,1,0,0-1.177H228.714a.587.587,0,0,0-.588.589Z" transform="translate(-228.126 -410.805)" fill="#ccc"/></g></svg>