<svg xmlns="http://www.w3.org/2000/svg" width="29" height="29" viewBox="0 0 29 29">
  <path id="down" d="M29.769,3H5.231A2.231,2.231,0,0,0,3,5.231V29.769A2.231,2.231,0,0,0,5.231,32H29.769A2.231,2.231,0,0,0,32,29.769V5.231A2.231,2.231,0,0,0,29.769,3ZM23.98,18.147,18.4,25.955a1.115,1.115,0,0,1-1.807,0L11.02,18.147a1.115,1.115,0,0,1,.9-1.762h1.115V10.808a1.115,1.115,0,0,1,1.115-1.115h6.692a1.115,1.115,0,0,1,1.115,1.115v5.577h1.115a1.115,1.115,0,0,1,.9,1.762Z" transform="translate(-3 -3)" fill="#41b5dc"/>
</svg>
