<svg xmlns="http://www.w3.org/2000/svg" width="16.596" height="16.601" viewBox="0 0 16.596 16.601">
  <g id="editarBTN" transform="translate(-81 -205.699)">
    <path id="Caminho_792" data-name="Caminho 792" d="M4.489,15.276H8.008a.83.83,0,0,0,.589-.241l5.742-5.751h0L16.7,6.978a.83.83,0,0,0,0-1.178L13.178,2.24A.83.83,0,0,0,12,2.24L9.659,4.588h0L3.9,10.339a.83.83,0,0,0-.241.589v3.518A.83.83,0,0,0,4.489,15.276ZM12.589,4l2.348,2.348L13.759,7.526,11.41,5.177ZM5.319,11.268,10.24,6.347,12.589,8.7,7.668,13.617H5.319Zm12.447,5.668H2.83a.83.83,0,1,0,0,1.66H17.767a.83.83,0,0,0,0-1.66Z" transform="translate(79 203.705)" fill="#1c2641"/>
  </g>
</svg>
