<svg xmlns="http://www.w3.org/2000/svg" width="222.874" height="217.552" viewBox="0 0 222.874 217.552">
  <g id="empty" transform="translate(-0.001 -0.004)">
    <path id="Caminho_996" data-name="Caminho 996" d="M443.346,201.336H383.291a5.168,5.168,0,0,0-5.162,5.162V339.971l-.688.21-14.732,4.512a2.755,2.755,0,0,1-3.438-1.827L315.448,199.722a2.754,2.754,0,0,1,1.827-3.438l22.7-6.952,65.816-20.146,22.7-6.952a2.749,2.749,0,0,1,3.438,1.824l11.2,36.588Z" transform="translate(-301.855 -152.406)" fill="#f2f2f2"/>
    <path id="Caminho_997" data-name="Caminho 997" d="M430.777,182.154l-13.5-44.1a5.848,5.848,0,0,0-7.306-3.882l-31.919,9.77L312.24,164.094l-31.919,9.773a5.856,5.856,0,0,0-3.882,7.306l46.142,150.707a5.86,5.86,0,0,0,5.6,4.14,5.779,5.779,0,0,0,1.71-.258l21.88-6.7.688-.213v-.719l-.688.21-22.083,6.762a5.167,5.167,0,0,1-6.446-3.424L277.1,180.97a5.155,5.155,0,0,1,3.424-6.446l31.919-9.773,65.812-20.146,31.919-9.773a5.157,5.157,0,0,1,6.446,3.424l13.438,43.9.213.688h.716Z" transform="translate(-276.182 -133.913)" fill="#3f3d56"/>
    <path id="Caminho_998" data-name="Caminho 998" d="M384.507,187.007a3.1,3.1,0,0,1-2.964-2.191l-4.433-14.478a3.1,3.1,0,0,1,2.055-3.868l60.547-18.536a3.1,3.1,0,0,1,3.868,2.055l4.433,14.479a3.1,3.1,0,0,1-2.055,3.868l-60.547,18.536A3.089,3.089,0,0,1,384.507,187.007Z" transform="translate(-342.288 -143.017)" fill="#6c63ff"/>
    <circle id="Elipse_154" data-name="Elipse 154" cx="6.883" cy="6.883" r="6.883" transform="translate(58.557 1.708)" fill="#6c63ff"/>
    <circle id="Elipse_155" data-name="Elipse 155" cx="4.358" cy="4.358" r="4.358" transform="translate(61.081 4.232)" fill="#fff"/>
    <path id="Caminho_999" data-name="Caminho 999" d="M651.561,439.312H535.243a2.928,2.928,0,0,1-2.925-2.925V297.012a2.929,2.929,0,0,1,2.925-2.925H651.561a2.929,2.929,0,0,1,2.925,2.925V436.387A2.929,2.929,0,0,1,651.561,439.312Z" transform="translate(-444.172 -238.963)" fill="#e6e6e6"/>
    <path id="Caminho_1000" data-name="Caminho 1000" d="M574.109,274.087h-72.44a5.859,5.859,0,0,0-5.85,5.85V420.276l.688-.21V279.937a5.168,5.168,0,0,1,5.162-5.162h72.654Zm63.149,0H501.668a5.859,5.859,0,0,0-5.85,5.85V437.551a5.859,5.859,0,0,0,5.85,5.85H637.258a5.859,5.859,0,0,0,5.85-5.85V279.937A5.859,5.859,0,0,0,637.258,274.087Zm5.162,163.464a5.168,5.168,0,0,1-5.162,5.162H501.668a5.168,5.168,0,0,1-5.162-5.162V279.937a5.168,5.168,0,0,1,5.162-5.162H637.258a5.168,5.168,0,0,1,5.162,5.162Z" transform="translate(-420.233 -225.846)" fill="#3f3d56"/>
    <path id="Caminho_1001" data-name="Caminho 1001" d="M675.236,277.423H611.915a3.1,3.1,0,0,1-3.1-3.1V259.184a3.1,3.1,0,0,1,3.1-3.1h63.321a3.1,3.1,0,0,1,3.1,3.1v15.142A3.1,3.1,0,0,1,675.236,277.423Z" transform="translate(-494.346 -214.04)" fill="#6c63ff"/>
    <circle id="Elipse_156" data-name="Elipse 156" cx="6.883" cy="6.883" r="6.883" transform="translate(142.347 29.314)" fill="#6c63ff"/>
    <circle id="Elipse_157" data-name="Elipse 157" cx="4.192" cy="4.192" r="4.192" transform="translate(145.038 32.004)" fill="#fff"/>
  </g>
</svg>
