<svg xmlns="http://www.w3.org/2000/svg" width="16.647" height="20.832" viewBox="0 0 16.647 20.832">
  <g id="false" transform="translate(0 0)">
    <path id="path4987" d="M6.169,3v.008q-.1-.005-.207,0A2.076,2.076,0,0,0,4.434,6.351L9.723,13.4,4.434,20.466a2.078,2.078,0,0,0,3.327,2.49l4.557-6.08,4.557,6.08a2.077,2.077,0,1,0,3.323-2.49L14.914,13.4,20.2,6.351a2.076,2.076,0,1,0-3.323-2.49L12.318,9.942,7.761,3.861A2.076,2.076,0,0,0,6.169,3Z" transform="translate(-4.001 -3)" fill="#fa726f" fill-rule="evenodd"/>
  </g>
</svg>
