<svg xmlns="http://www.w3.org/2000/svg" width="239" height="158.702" viewBox="0 0 239 158.702">
  <g id="foto404" transform="translate(-0.005)">
    <path id="Caminho_1002" data-name="Caminho 1002" d="M459.324,302.1c-2.131-3.525-4.656-7.288-8.611-8.439-4.58-1.333-9.284,1.315-13.275,3.927a386.821,386.821,0,0,0-34.425,25.364l.012.137,25.689-1.772c6.187-.427,12.586-.912,18.053-3.839,2.075-1.111,4.1-2.594,6.448-2.7,2.921-.128,5.468,1.911,7.469,4.043,11.839,12.607,15.265,31.886,28.547,42.962A421.517,421.517,0,0,0,459.324,302.1Z" transform="translate(-338.245 -257.491)" fill="#f2f2f2"/>
    <path id="Caminho_1003" data-name="Caminho 1003" d="M458.214,387.647c-1.309-1.653-1.844-2.04-3.136-3.709q-15.773-20.4-29.65-42.178Q416,326.97,407.51,311.611q-4.043-7.3-7.863-14.718-2.965-5.75-5.8-11.57c-.54-1.108-1.065-2.221-1.587-3.337-1.23-2.624-2.438-5.26-3.734-7.848-1.477-2.95-3.276-6.042-5.989-8.024a8.171,8.171,0,0,0-4.257-1.638,11.873,11.873,0,0,0-6.162,1.765,198.359,198.359,0,0,0-39,26.9,203.058,203.058,0,0,0-31.688,35.175c-.28.4-.942.018-.66-.385q1.67-2.361,3.406-4.672A204.18,204.18,0,0,1,356.3,274.635q5.07-3.286,10.332-6.264c1.768-1,3.543-1.989,5.349-2.917a13.033,13.033,0,0,1,5.673-1.758c6.883-.107,10.446,7.688,12.894,12.932q1.154,2.476,2.336,4.937,4.467,9.342,9.277,18.514,2.969,5.663,6.068,11.259,9.644,17.427,20.5,34.149c9.588,14.767,19.1,27.811,30.022,41.62C459.054,387.489,458.517,388.034,458.214,387.647Z" transform="translate(-264.362 -236.112)" fill="#e4e4e4"/>
    <path id="Caminho_1004" data-name="Caminho 1004" d="M254.261,323.016c-.4-.446-.8-.892-1.2-1.337-3.174-3.51-6.579-6.98-10.938-8.992a15.869,15.869,0,0,0-6.648-1.541,18.973,18.973,0,0,0-6.9,1.505c-1.039.415-2.056.886-3.057,1.388-1.144.576-2.267,1.19-3.385,1.809q-3.148,1.742-6.215,3.637-6.1,3.771-11.822,8.118-2.965,2.254-5.808,4.656-2.644,2.231-5.181,4.583c-.362.334-.9-.206-.54-.54.446-.415.9-.828,1.348-1.235q1.91-1.727,3.882-3.388,3.6-3.034,7.377-5.833,5.88-4.356,12.166-8.121,3.141-1.88,6.368-3.6c.65-.346,1.307-.685,1.972-1.006a31.43,31.43,0,0,1,4.687-1.908,16.673,16.673,0,0,1,7.079-.7,18.43,18.43,0,0,1,6.531,2.259c4.279,2.392,7.6,6.09,10.828,9.7C255.127,322.84,254.59,323.383,254.261,323.016Z" transform="translate(-186.186 -269.839)" fill="#e4e4e4"/>
    <path id="Caminho_1005" data-name="Caminho 1005" d="M729.273,464.81l10.254-3.751,5.091-1.862a52.061,52.061,0,0,1,5.027-1.731,7.93,7.93,0,0,1,4.55.058,10.487,10.487,0,0,1,3.549,2.2,28.8,28.8,0,0,1,2.911,3.108c1.109,1.332,2.2,2.678,3.3,4.02q6.791,8.306,13.494,16.683t13.315,16.826q6.629,8.469,13.167,17.01.8,1.046,1.6,2.093c.294.386.958.005.66-.386q-6.586-8.626-13.264-17.182-6.694-8.576-13.481-17.079t-13.665-16.932q-1.714-2.1-3.433-4.2c-.967-1.178-1.923-2.369-2.983-3.466-1.947-2.013-4.379-3.792-7.29-3.841a14.069,14.069,0,0,0-4.958,1.09c-1.714.62-3.425,1.252-5.137,1.878l-10.326,3.777-2.582.944c-.458.168-.26.906.2.737Z" transform="translate(-573.515 -375.258)" fill="#e4e4e4"/>
    <path id="Caminho_1006" data-name="Caminho 1006" d="M323.045,330.085a16.555,16.555,0,0,0-16.673,1.192,237.807,237.807,0,0,1,27.056,6.315C329.737,335.43,326.85,332.041,323.045,330.085Z" transform="translate(-268.457 -282.821)" fill="#f2f2f2"/>
    <path id="Caminho_1007" data-name="Caminho 1007" d="M303.581,338.784l-1,.815c.339-.285.692-.553,1.055-.806Z" transform="translate(-265.717 -290.336)" fill="#f2f2f2"/>
    <path id="Caminho_1008" data-name="Caminho 1008" d="M818.5,479.012A8.536,8.536,0,0,0,814.891,476l-1.41.056a159.894,159.894,0,0,0,42.588,48.688Z" transform="translate(-634.659 -389.423)" fill="#f2f2f2"/>
    <path id="Caminho_1009" data-name="Caminho 1009" d="M513.628,450.367a10.414,10.414,0,0,0,4.149,5.823c.784.534,1.711,1.045,1.979,1.955a2.328,2.328,0,0,1-.243,1.709,6.916,6.916,0,0,1-1.073,1.4l-.038.142a12.625,12.625,0,0,1-4.869-4.6,6.206,6.206,0,0,1,.095-6.431" transform="translate(-417.442 -370.914)" fill="#f2f2f2"/>
    <path id="Caminho_1010" data-name="Caminho 1010" d="M746.628,653.367a10.415,10.415,0,0,0,4.149,5.824c.784.534,1.711,1.045,1.979,1.955a2.328,2.328,0,0,1-.243,1.709,6.916,6.916,0,0,1-1.073,1.4l-.038.142a12.627,12.627,0,0,1-4.869-4.6,6.206,6.206,0,0,1,.095-6.431" transform="translate(-585.7 -517.507)" fill="#f2f2f2"/>
    <path id="Caminho_1011" data-name="Caminho 1011" d="M281.628,639.367a10.414,10.414,0,0,0,4.149,5.823c.784.534,1.711,1.045,1.979,1.955a2.328,2.328,0,0,1-.243,1.709,6.915,6.915,0,0,1-1.073,1.4l-.038.142a12.626,12.626,0,0,1-4.869-4.6,6.206,6.206,0,0,1,.095-6.431" transform="translate(-249.906 -507.397)" fill="#f2f2f2"/>
    <circle id="Elipse_158" data-name="Elipse 158" cx="14.171" cy="14.171" r="14.171" transform="translate(166.236)" fill="#6c63ff"/>
    <path id="Caminho_1012" data-name="Caminho 1012" d="M838.691,175.93c-6.868-.928-14.709,2.784-16.489,9.482a6,6,0,0,0-11.418.586l.786.563a103.442,103.442,0,0,0,44.641-.2C851.434,181.338,845.559,176.858,838.691,175.93Z" transform="translate(-632.711 -172.631)" fill="#f0f0f0"/>
    <path id="Caminho_1013" data-name="Caminho 1013" d="M732.691,243.93c-6.868-.928-14.709,2.784-16.489,9.482a6,6,0,0,0-11.418.586l.786.563a103.442,103.442,0,0,0,44.641-.2C745.434,249.338,739.559,244.858,732.691,243.93Z" transform="translate(-556.165 -221.737)" fill="#f0f0f0"/>
    <path id="Caminho_1014" data-name="Caminho 1014" d="M412.265,208a.274.274,0,0,1-.084-.013A392.349,392.349,0,0,0,232.574,194.43c-5.632.9-11.279,1.947-16.784,3.1-1.405.294-2.864.61-4.334.939-1.756.391-3.488.794-5.149,1.2q-1.076.255-2.11.514c-1.044.258-2.1.526-3.24.822-1.269.327-2.559.671-3.834,1.02l-.014,0h0c-1.44.393-2.873.8-4.258,1.2-.75.217-1.474.43-2.167.641-.077.021-.146.042-.216.063l-.149.045-.257.077-.005,0h0l-.225.07-.789.24c-6.82,2.1-10.569,3.6-10.606,3.613a.278.278,0,1,1-.207-.516c.037-.015,3.8-1.518,10.65-3.628l.792-.241.209-.065.022-.007c.085-.024.169-.05.255-.076l.149-.045c.074-.023.148-.045.223-.065.689-.209,1.415-.424,2.167-.641,1.386-.4,2.82-.809,4.261-1.2l.014,0h0c1.279-.351,2.574-.7,3.847-1.024,1.138-.3,2.2-.565,3.245-.823q1.039-.258,2.114-.515c1.663-.4,3.4-.806,5.158-1.2,1.472-.329,2.933-.645,4.341-.94,5.514-1.157,11.17-2.2,16.81-3.106a392.9,392.9,0,0,1,179.862,13.575.278.278,0,0,1-.084.543Z" transform="translate(-175.795 -182.233)" fill="#ccc"/>
    <path id="Caminho_1015" data-name="Caminho 1015" d="M295.4,508.058a1.87,1.87,0,0,0-.472-.742,1.789,1.789,0,0,0-.256-.2,2.136,2.136,0,0,0-2.5,0,1.615,1.615,0,0,0-.192.2q-.308.379-.634.742c-.356.406-.72.8-1.1,1.178-.108.106-.217.214-.328.32-.064.064-.128.125-.192.186-.245.233-.495.458-.747.681-.133.119-.267.236-.4.35-.2.169-.406.339-.611.5-.019.014-.039.028-.058.044s-.008.008-.014.011-.006,0-.008.006a.049.049,0,0,0-.019.014c-.061.042-.1.069-.133.094l.033-.019-.153.117c-.486.358-.984.7-1.492,1.025a27.563,27.563,0,0,1-3.951,2.1c-.092.036-.186.075-.281.111a23.888,23.888,0,0,1-11.351,1.673q-.592-.046-1.184-.125c-.456-.067-.909-.147-1.359-.239a27.213,27.213,0,0,1-5.007-1.512,32.966,32.966,0,0,1-5.741-3.368c-.278-.2-.559-.395-.839-.586.32-.784.634-1.567.939-2.356.153-.381.3-.761.445-1.145,1.136-2.954,2.2-5.935,3.226-8.928q1.55-4.547,2.926-9.147.142-.467.275-.934.721-2.43,1.384-4.871c.042-.158.086-.314.125-.472q.192-.7.375-1.4a2.084,2.084,0,1,0-4.018-1.109c-.119.45-.239.9-.361,1.348q-.879,3.263-1.851,6.5l-.283.934q-2.142,7.061-4.7,13.979-.308.838-.625,1.67c-.1.272-.206.545-.311.817-.2.536-.411,1.073-.62,1.609-.119.314-.242.628-.364.939-.081.2-.158.395-.236.589a11.614,11.614,0,0,0-2.448-.589l-.133-.017a7.612,7.612,0,0,0-1.948.017,6.645,6.645,0,0,0-4.79,2.962,5.511,5.511,0,0,0,.55,6.844,6.183,6.183,0,0,0,7.066.67,7.878,7.878,0,0,0,2.923-2.74,14.047,14.047,0,0,0,.761-1.292c.058.039.117.078.175.12.222.156.445.314.664.47a31.043,31.043,0,0,0,4.032,2.476,30.11,30.11,0,0,0,9.62,2.909c.075.008.147.019.222.028.37.047.742.083,1.114.114a28.837,28.837,0,0,0,15.444-3.157q.6-.313,1.2-.656.921-.533,1.8-1.134c.32-.217.631-.436.939-.667a28.074,28.074,0,0,0,3.754-3.32q.654-.688,1.253-1.42a2.24,2.24,0,0,0,.611-1.473A2.1,2.1,0,0,0,295.4,508.058Zm-46.012,6.619c.058-.042.117-.086.172-.131C249.542,514.588,249.462,514.635,249.387,514.677Zm.892-.9c-.064.072-.122.145-.186.217a6.5,6.5,0,0,1-.625.611c-.031.028-.064.056-.1.081h0v0a1.063,1.063,0,0,0-.117.061q-.179.108-.367.2a4.72,4.72,0,0,1-.753.208,4.671,4.671,0,0,1-.592.006h-.006a4.143,4.143,0,0,1-.4-.111c-.067-.033-.131-.072-.195-.111-.025-.022-.047-.044-.061-.058a.679.679,0,0,1-.075-.081v0h0c-.031-.056-.064-.111-.094-.167a.009.009,0,0,1,0-.006c-.022-.069-.042-.142-.058-.214a3.478,3.478,0,0,1,0-.381,3.739,3.739,0,0,1,.15-.522,3.079,3.079,0,0,1,.192-.35c.006-.011.033-.056.064-.106,0,0,0,0,0-.006.042-.047.083-.1.128-.142.075-.083.156-.156.236-.231a5.007,5.007,0,0,1,.486-.281,5.411,5.411,0,0,1,.814-.22,6.946,6.946,0,0,1,1.225.011,8.42,8.42,0,0,1,1.139.281,10.267,10.267,0,0,1-.77,1.261C250.3,513.749,250.29,513.766,250.279,513.78Zm-3.09-.914a.605.605,0,0,1-.086.108A.392.392,0,0,1,247.189,512.865Z" transform="translate(-222.319 -391.4)" fill="#3f3d56"/>
    <path id="Caminho_1016" data-name="Caminho 1016" d="M387.048,476.72l-.075,2.617q-.079,2.905-.164,5.813-.088,3.272-.183,6.541-.046,1.688-.094,3.376-.129,4.547-.256,9.092c-.008.314-.019.625-.028.939l-.125,4.51q-.071,2.447-.139,4.893-.05,1.834-.1,3.671l-.75,26.617a2.125,2.125,0,0,1-2.084,2.084,2.1,2.1,0,0,1-2.084-2.084q.208-7.486.422-14.971.188-6.769.381-13.537l.125-4.463q.1-3.359.189-6.719c.008-.314.019-.625.028-.939.006-.275.014-.547.022-.822q.183-6.523.367-13.049.075-2.567.144-5.138.083-2.93.167-5.857c.025-.859.047-1.714.072-2.573a2.125,2.125,0,0,1,2.084-2.084A2.1,2.1,0,0,1,387.048,476.72Z" transform="translate(-322.322 -388.44)" fill="#3f3d56"/>
    <path id="Caminho_1017" data-name="Caminho 1017" d="M763.344,480.259a248.215,248.215,0,0,1-7.825,24.436c-.836,2.208-1.69,4.412-2.6,6.589l.21-.5a15.164,15.164,0,0,1-1.553,2.949q-.064.089-.13.177.324-.414.123-.164c-.071.083-.14.167-.213.249a6.568,6.568,0,0,1-.625.612q-.084.072-.17.14l.261-.2c-.03.071-.242.166-.309.206a5.064,5.064,0,0,1-.668.339l.5-.21a5.3,5.3,0,0,1-1.176.323l.554-.074a4.728,4.728,0,0,1-1.194.013l.554.074a3.892,3.892,0,0,1-.946-.255l.5.21a3.338,3.338,0,0,1-.466-.249c-.075-.049-.307-.225,0,.007s.04.021-.024-.043-.1-.111-.156-.165c-.245-.251.277.432.11.139a5.045,5.045,0,0,1-.244-.455l.21.5a3.313,3.313,0,0,1-.2-.737l.074.554a3.793,3.793,0,0,1,0-.946l-.074.554a4.438,4.438,0,0,1,.276-1.023l-.21.5a4.638,4.638,0,0,1,.327-.639,1.87,1.87,0,0,1,.2-.3c.014,0-.352.42-.158.21.051-.055.1-.113.15-.167.082-.087.17-.167.257-.25.29-.276-.406.268-.071.05a5.3,5.3,0,0,1,.764-.417l-.5.21a5.645,5.645,0,0,1,1.388-.372l-.554.074a7.123,7.123,0,0,1,1.8.021l-.554-.074a9.227,9.227,0,0,1,2.193.617l-.5-.21a23.183,23.183,0,0,1,4.148,2.534,31.107,31.107,0,0,0,4.031,2.475,30.118,30.118,0,0,0,9.62,2.91,28.879,28.879,0,0,0,25.726-10.212,2.245,2.245,0,0,0,.61-1.474,2.084,2.084,0,0,0-3.558-1.474,26.575,26.575,0,0,1-2.253,2.425q-.561.532-1.151,1.031-.337.285-.684.559c-.109.086-.45.316.073-.055-.12.085-.235.178-.353.265a27.585,27.585,0,0,1-5.65,3.213l.5-.21a26.908,26.908,0,0,1-6.716,1.84l.554-.074a27.132,27.132,0,0,1-7.156-.011l.554.074a27.734,27.734,0,0,1-6.907-1.881l.5.21a32.235,32.235,0,0,1-6.04-3.5,24.143,24.143,0,0,0-3.088-1.943,11.9,11.9,0,0,0-4.012-1.219,6.917,6.917,0,0,0-6.737,2.979,5.508,5.508,0,0,0,.548,6.842,6.183,6.183,0,0,0,7.068.668c2.172-1.1,3.477-3.386,4.394-5.541,2.065-4.85,3.893-9.812,5.6-14.8q2.528-7.4,4.584-14.953.255-.935.5-1.872a2.085,2.085,0,0,0-4.019-1.108Z" transform="translate(-584.296 -391.401)" fill="#3f3d56"/>
    <path id="Caminho_1018" data-name="Caminho 1018" d="M884.139,476.72l-.75,26.617-.746,26.479-.422,14.972a2.1,2.1,0,0,0,2.084,2.084,2.126,2.126,0,0,0,2.084-2.084l.75-26.618.746-26.479.422-14.972a2.1,2.1,0,0,0-2.084-2.084A2.126,2.126,0,0,0,884.139,476.72Z" transform="translate(-684.298 -388.44)" fill="#3f3d56"/>
    <path id="Caminho_1019" data-name="Caminho 1019" d="M544.794,560.779h.647V531.313h15.1v-.645h-15.1V518.235H557.1q-.256-.326-.528-.644h-11.13V509.38c-.214-.091-.43-.179-.647-.262v8.474H532.109V507.07c-.217.01-.431.025-.647.043v10.478h-10.12v-7.85c-.217.1-.431.2-.644.3v7.546h-8.507v.644H520.7v12.433h-8.507v.645H520.7v29.465h.644V531.313a10.118,10.118,0,0,1,10.12,10.122v19.343h.647V531.313h12.685Zm-23.452-30.111V518.235h10.12v12.433Zm10.767,0V518.235h.254a12.432,12.432,0,0,1,12.431,12.432Z" transform="translate(-417.087 -411.861)" opacity="0.2"/>
    <path id="Caminho_1020" data-name="Caminho 1020" d="M587.017,631.4a17.522,17.522,0,0,1-5.571,9.364c-.206.178-.411.35-.625.52q-.779.071-1.548.145c-.425.039-.845.081-1.262.119l-.075.008-.053-.456-.211-1.845a10.454,10.454,0,0,1-.917-9.014,22.4,22.4,0,0,1,3.368-5.46c1.8-2.4,3.557-4.763,3.621-7.683a16.819,16.819,0,0,1,2.2,3.7,4.564,4.564,0,0,0-1.423,1.047c-.114.125-.228.3-.15.45.067.128.233.158.378.175l1.045.108.834.089a17.781,17.781,0,0,1,.681,3.384A17,17,0,0,1,587.017,631.4Z" transform="translate(-463.261 -491.315)" fill="#3f3d56"/>
    <path id="Caminho_1021" data-name="Caminho 1021" d="M601.118,642.295a10.268,10.268,0,0,0-3.343,4.8,4.62,4.62,0,0,0-1.992,1.273c-.114.125-.228.3-.15.45.067.128.233.158.378.175l1.045.108a24.723,24.723,0,0,1-2.745,6.433,10.277,10.277,0,0,1-3.343,3.031,10.69,10.69,0,0,1-1.117.553q-2.117.163-4.154.347-.779.071-1.548.144c-.425.039-.845.081-1.262.12q0-.229,0-.458a17.591,17.591,0,0,1,4.237-11.076c.125-.144.253-.286.383-.428a17.17,17.17,0,0,1,4.671-3.529A17.41,17.41,0,0,1,601.118,642.295Z" transform="translate(-468.137 -509.495)" fill="#6c63ff"/>
    <path id="Caminho_1022" data-name="Caminho 1022" d="M569.678,639.921l-.32.945-.161.481c-.425.039-.845.081-1.262.119l-.075.008-1.378.142c-.12-.139-.239-.281-.356-.425a17.236,17.236,0,0,1,2.242-24.2,10.075,10.075,0,0,0,.764,5.585c-.075.031-.147.061-.217.094a4.567,4.567,0,0,0-1.423,1.048c-.114.125-.228.3-.15.45.067.128.233.158.378.175l1.045.108.834.089.392.042c.019.042.036.081.056.122a33.757,33.757,0,0,1,2.126,5.232,12.125,12.125,0,0,1,.283,1.364A10.449,10.449,0,0,1,569.678,639.921Z" transform="translate(-453.186 -491.236)" fill="#6c63ff"/>
    <path id="Caminho_1023" data-name="Caminho 1023" d="M540.564,511.1a30.784,30.784,0,0,0-10.457-11.477A31.743,31.743,0,0,0,515.5,494.52q-1.025-.093-2.056-.109c-.812-.012-13.022,3.51-17.113,6.386a31.758,31.758,0,0,0-9.818,10.983,28.481,28.481,0,0,0-3.369,14.347,31.556,31.556,0,0,0,4.085,14.3A30.7,30.7,0,0,0,497.358,551.2c4.262,2.719,8.543,9.929,13.575,10.184,5.07.256,10.852-6.545,15.476-8.61A29.016,29.016,0,0,0,538,543.321a30.634,30.634,0,0,0,5.446-13.6,31.461,31.461,0,0,0-1.334-15.009,31.066,31.066,0,0,0-1.551-3.608,2.1,2.1,0,0,0-2.851-.748,2.134,2.134,0,0,0-.748,2.851q.436.858.81,1.744l-.21-.5a28.108,28.108,0,0,1,1.911,7.1L539.4,521a30.354,30.354,0,0,1-.018,7.97l.074-.554a30.491,30.491,0,0,1-2.1,7.69l.21-.5a28.95,28.95,0,0,1-1.854,3.64q-.534.885-1.134,1.729c-.176.247-.357.489-.539.731-.238.315.324-.412.078-.1l-.126.158q-.189.237-.384.469a26.007,26.007,0,0,1-2.828,2.885q-.38.331-.772.648c-.13.105-.259.215-.395.313.005,0,.439-.333.182-.142l-.242.181q-.809.6-1.66,1.137a28.75,28.75,0,0,1-4.1,2.143l.5-.21a30.348,30.348,0,0,1-7.668,2.1l.554-.074a30.051,30.051,0,0,1-7.944.014l.554.074a27.74,27.74,0,0,1-6.973-1.885l.5.21a26.023,26.023,0,0,1-3.728-1.943q-.882-.556-1.718-1.18l-.238-.179c-.254-.192.183.142.186.144a5.32,5.32,0,0,1-.427-.34q-.4-.329-.8-.673a28.336,28.336,0,0,1-2.916-2.976q-.337-.4-.66-.809c-.093-.118-.263-.359.112.147-.049-.067-.1-.132-.15-.2q-.18-.238-.354-.48-.612-.847-1.164-1.735a30.373,30.373,0,0,1-2.169-4.2l.21.5a29.617,29.617,0,0,1-2.04-7.457l.074.554a27.194,27.194,0,0,1-.013-7.123l-.074.554a26.307,26.307,0,0,1,1.832-6.657l-.21.5a28.222,28.222,0,0,1,2-3.85q.574-.923,1.216-1.8.146-.2.3-.4c.09-.119.338-.415-.085.108.041-.051.081-.1.122-.156q.353-.447.722-.879a29.845,29.845,0,0,1,3.024-3.062q.41-.359.832-.7.192-.156.387-.309l.156-.122c-.555.442-.154.12-.028.026q.871-.652,1.788-1.24a28.8,28.8,0,0,1,4.275-2.253l-.5.21c2.156-.905,11.709-3.042,13.447-2.809l-.554-.074A29.518,29.518,0,0,1,523.6,500.8l-.5-.21a30.647,30.647,0,0,1,3.5,1.759q.846.5,1.658,1.045.384.26.761.532.188.136.374.275l.206.155c.289.216-.4-.313-.1-.074a30.792,30.792,0,0,1,2.881,2.571q.667.679,1.288,1.4.319.371.624.752c.1.126.446.584.023.023.1.137.208.273.31.411a27.229,27.229,0,0,1,2.332,3.762,2.1,2.1,0,0,0,2.851.748A2.133,2.133,0,0,0,540.564,511.1Z" transform="translate(-396.102 -402.72)" fill="#3f3d56"/>
    <path id="Caminho_1024" data-name="Caminho 1024" d="M537.163,578.661a1.05,1.05,0,0,1-.761-1.82l.072-.286-.029-.069c-.967-2.306-7.137,4.122-7.4,6.289a8.345,8.345,0,0,0,.146,2.87,33.453,33.453,0,0,1-3.043-13.894,32.284,32.284,0,0,1,.2-3.6q.166-1.471.46-2.921a33.84,33.84,0,0,1,6.711-14.342c1.91.107,3.584-.184,3.746-3.886.029-.658.517-1.229.625-1.877-.182.024-.368.039-.55.051l-.173.009h-.021a1.041,1.041,0,0,1-.855-1.7l.236-.291c.12-.149.242-.3.362-.445a.522.522,0,0,0,.039-.045c.138-.17.275-.338.413-.508a3.009,3.009,0,0,0-.986-.954,3.469,3.469,0,0,0-4.275,1,5.438,5.438,0,0,0-.84,4.553,12.058,12.058,0,0,0,1.668,3.719c-.075.1-.152.188-.227.284a34.06,34.06,0,0,0-3.555,5.632c.282-2.206-3.171-10.172-4.506-11.859A2.906,2.906,0,0,0,519.439,546l-.008.075q.3.168.583.356a1.425,1.425,0,0,1-.574,2.593l-.029,0c-2.655,3.791,5.857,13.658,7.987,11.443a34.765,34.765,0,0,0-1.871,8.806,32.975,32.975,0,0,0,.024,5.324l-.009-.063c-.473-3.857-8.595-9.593-10.966-9.115-1.366.275-2.712.213-2.5,1.591l.01.066a9.572,9.572,0,0,1,1.073.517q.3.168.582.356a1.425,1.425,0,0,1-.574,2.593l-.029,0-.06.009c-1.209,4.159,7.755,10.87,13.2,8.735h0a34.757,34.757,0,0,0,2.335,6.815h8.34c.03-.093.057-.188.084-.281a9.477,9.477,0,0,1-2.308-.138c.619-.759,1.238-1.524,1.856-2.284a.522.522,0,0,0,.039-.045c.314-.389.631-.774.945-1.163h0a13.881,13.881,0,0,0-.407-3.536Zm-9.55-18.787,0-.006,0,.012Zm-1.847,16.653-.072-.161c0-.117,0-.233,0-.353,0-.033-.006-.066-.006-.1.027.206.051.413.081.619Z" transform="translate(-416.984 -436.268)" fill="#3f3d56"/>
    <circle id="Elipse_159" data-name="Elipse 159" cx="3.057" cy="3.057" r="3.057" transform="translate(23.413 118.926)" fill="#3f3d56"/>
    <circle id="Elipse_160" data-name="Elipse 160" cx="3.057" cy="3.057" r="3.057" transform="translate(60.092 152.27)" fill="#3f3d56"/>
    <circle id="Elipse_161" data-name="Elipse 161" cx="3.057" cy="3.057" r="3.057" transform="translate(199.302 152.27)" fill="#3f3d56"/>
    <circle id="Elipse_162" data-name="Elipse 162" cx="3.057" cy="3.057" r="3.057" transform="translate(206.804 113.369)" fill="#3f3d56"/>
    <circle id="Elipse_163" data-name="Elipse 163" cx="3.057" cy="3.057" r="3.057" transform="translate(197.912 85.027)" fill="#3f3d56"/>
    <path id="Caminho_1025" data-name="Caminho 1025" d="M418.369,575.5a3.042,3.042,0,1,1-.058-.6,3.042,3.042,0,0,1,.058.6Z" transform="translate(-344.94 -459.075)" fill="#3f3d56"/>
    <circle id="Elipse_164" data-name="Elipse 164" cx="3.057" cy="3.057" r="3.057" transform="translate(131.503 93.918)" fill="#3f3d56"/>
    <path id="Caminho_1026" data-name="Caminho 1026" d="M529.369,505.5a3.042,3.042,0,1,1-.058-.6A3.042,3.042,0,0,1,529.369,505.5Z" transform="translate(-425.097 -408.525)" fill="#3f3d56"/>
    <path id="Caminho_1027" data-name="Caminho 1027" d="M387.369,473.5a3.042,3.042,0,1,1-.058-.6A3.042,3.042,0,0,1,387.369,473.5Z" transform="translate(-322.554 -385.417)" fill="#3f3d56"/>
    <circle id="Elipse_165" data-name="Elipse 165" cx="3.057" cy="3.057" r="3.057" transform="translate(163.457 120.037)" fill="#3f3d56"/>
    <circle id="Elipse_166" data-name="Elipse 166" cx="4.446" cy="4.446" r="4.446" transform="translate(113.997 89.472)" fill="#3f3d56"/>
    <path id="Caminho_1028" data-name="Caminho 1028" d="M408.608,733.547l-238.338.085a.331.331,0,0,1,0-.662l238.338-.085a.331.331,0,1,1,0,.662Z" transform="translate(-169.934 -574.931)" fill="#cacaca"/>
  </g>
</svg>
