<svg xmlns="http://www.w3.org/2000/svg" width="99" height="99" viewBox="0 0 99 99">
  <g id="iconlavar" transform="translate(-30.471 -15)">
    <g id="Grupo_507" data-name="Grupo 507">
      <rect id="Retângulo_94" data-name="Retângulo 94" width="99" height="99" rx="10.588" transform="translate(30.471 15)" fill="#fa726f"/>
      <path id="Caminho_648" data-name="Caminho 648" d="M80.278,90.942v-.009H79.79a1.013,1.013,0,0,0-1.009,1.011V100.5a1.012,1.012,0,0,0,1.009,1.011H81.81v-2.97c-.08-.159-.159-.321-.233-.489A19.517,19.517,0,0,1,80.278,90.942Zm2.541,9.114v1.45H84.6A6.356,6.356,0,0,1,82.819,100.056Zm.251-6.073a8.223,8.223,0,0,0,1.945,4.731l.326.281a4.036,4.036,0,0,0,.79.454V79.875a14.651,14.651,0,0,0-3.357,9.632A29.911,29.911,0,0,0,83.07,93.983Zm3.566,8.031a25.107,25.107,0,0,0,5.717.412,25.111,25.111,0,0,0,5.717-.412V99.563H86.636ZM68.914,87.879V42.747H67.9V87.879ZM87.926,33.922c2.935,3.037,2.813,7.768,2.813,7.815h0V80.6a1.656,1.656,0,0,0-.118.6,1.509,1.509,0,0,0,.024.226,1.629,1.629,0,1,0,3.126-.827V41.736h0c.009-.243.19-5.917-3.642-9.9-2.3-2.389-5.494-3.6-9.5-3.6H80.33v3.031h.295C83.765,31.266,86.221,32.158,87.926,33.922ZM65.884,87.879H66.9V42.747H65.884Zm10.37,11.685H70.278v-.506a1.015,1.015,0,0,0-1.012-1.011h-.352V88.889H65.884v9.157h-.352a1.013,1.013,0,0,0-1.012,1.011v.506H58.542a1.011,1.011,0,0,0-1.009,1.009v1.913H77.267v-1.913A1.013,1.013,0,0,0,76.255,99.563Zm13.977-24.52A10.1,10.1,0,0,0,86.778,76.6l-.493.365c-3.462,2.7-5.528,7.393-5.528,12.539l.024,1.417a19.048,19.048,0,0,0,1.259,6.92,7.808,7.808,0,0,0,.978,1.672,5.852,5.852,0,0,0,1.937,1.616,7.278,7.278,0,0,0,.923.373l.252.069v-1.6l-.252-.1a4.6,4.6,0,0,1-.842-.476l-.372-.321c-1.045-1-1.731-2.642-2.1-5.019a30.984,30.984,0,0,1-.3-4.553,15.052,15.052,0,0,1,3.673-10.187l.518-.52a9.045,9.045,0,0,1,3.769-2.194ZM103.95,89.507c0-5.146-2.07-9.834-5.531-12.539l-.495-.366A10.06,10.06,0,0,0,94.272,75v1.555A9.015,9.015,0,0,1,98.245,78.8l.515.52a15.058,15.058,0,0,1,3.675,10.187,30.311,30.311,0,0,1-.3,4.553c-.362,2.377-1.046,4.018-2.094,5.019l-.372.321a4.626,4.626,0,0,1-.841.476l-.253.1v1.6l.253-.069.185-.068a5.884,5.884,0,0,0,.738-.3,6.128,6.128,0,0,0,.778-.494,6.035,6.035,0,0,0,1.16-1.122,7.923,7.923,0,0,0,.976-1.672,19.008,19.008,0,0,0,1.259-6.92Zm-4.258,9.207a8.223,8.223,0,0,0,1.943-4.731,30.046,30.046,0,0,0,.295-4.476,14.636,14.636,0,0,0-3.356-9.631V99.449a3.982,3.982,0,0,0,.79-.454Zm5.223-7.782h-.485v.009a19.527,19.527,0,0,1-1.3,7.105c-.072.168-.149.33-.23.489v2.97h2.02a1.014,1.014,0,0,0,1.011-1.011V91.943A1.014,1.014,0,0,0,104.915,90.932Zm-4.806,10.574h1.777v-1.45A6.384,6.384,0,0,1,100.109,101.506Zm-13.473-3.46H98.069v-.5H86.636Zm7.636-20.968V79.39a2.643,2.643,0,1,1-4.04.24v-2.5a8.606,8.606,0,0,0-3.421,2.038l-.175.173V90.932H98.069V79.341l-.175-.173A8.535,8.535,0,0,0,94.272,77.078ZM86.636,97.035H98.069v-.506H86.636Zm0-1.01H98.069V94.2H86.636Zm0,3.031H98.069v-.5H86.636ZM68.914,41.823c0-.047-.126-4.865,2.812-7.9,1.7-1.763,4.161-2.655,7.3-2.655h.295V28.235h-.295c-4,0-7.2,1.213-9.5,3.6-3.83,3.984-3.649,9.745-3.641,9.987Z" transform="translate(-1.759 -0.86)" fill="#fff"/>
    </g>
  </g>
</svg>
