<svg xmlns="http://www.w3.org/2000/svg" xmlns:xlink="http://www.w3.org/1999/xlink" width="42.095" height="42.095" viewBox="0 0 42.095 42.095">
  <defs>
    <filter id="Elipse_75" x="0" y="0" width="38.719" height="38.849" filterUnits="userSpaceOnUse">
      <feOffset dy="3" input="SourceAlpha"/>
      <feGaussianBlur stdDeviation="3" result="blur"/>
      <feFlood flood-opacity="0.161"/>
      <feComposite operator="in" in2="blur"/>
      <feComposite in="SourceGraphic"/>
    </filter>
    <filter id="Caminho_682" x="18.549" y="18.527" width="23.546" height="23.568" filterUnits="userSpaceOnUse">
      <feOffset dy="3" input="SourceAlpha"/>
      <feGaussianBlur stdDeviation="3" result="blur-2"/>
      <feFlood flood-opacity="0.161"/>
      <feComposite operator="in" in2="blur-2"/>
      <feComposite in="SourceGraphic"/>
    </filter>
  </defs>
  <g id="lupaNav" transform="translate(9 6)">
    <g transform="matrix(1, 0, 0, 1, -9, -6)" filter="url(#Elipse_75)">
      <ellipse id="Elipse_75-2" data-name="Elipse 75" cx="10.36" cy="10.425" rx="10.36" ry="10.425" transform="translate(9 6)" fill="#fff"/>
    </g>
    <g transform="matrix(1, 0, 0, 1, -9, -6)" filter="url(#Caminho_682)">
      <path id="Caminho_682-2" data-name="Caminho 682" d="M19.346,20.892a1.592,1.592,0,0,1-1.071-.464l-2.453-2.868a1.31,1.31,0,0,1-.1-1.833h0a1.173,1.173,0,0,1,1.671,0L20.481,18.2a1.624,1.624,0,0,1,.35,1.724,1.608,1.608,0,0,1-1.421,1.025Z" transform="translate(12.15 9.15)" fill="#fff" opacity="0.4"/>
    </g>
  </g>
</svg>
