<svg id="money" xmlns="http://www.w3.org/2000/svg" width="24" height="24" viewBox="0 0 24 24">
  <path id="Caminho_935" data-name="Caminho 935" d="M0,0H24V24H0Z" fill="none"/>
  <path id="Caminho_936" data-name="Caminho 936" d="M15,18.5A6.48,6.48,0,0,1,9.24,15H14a1,1,0,0,0,0-2H8.58a6.29,6.29,0,0,1,0-2H14a1,1,0,0,0,0-2H9.24a6.5,6.5,0,0,1,9.18-2.53,1.268,1.268,0,0,0,1.57-.16,1.251,1.251,0,0,0-.25-1.96A8.994,8.994,0,0,0,6.52,9H4a1,1,0,0,0,0,2H6.06a8.363,8.363,0,0,0,0,2H4a1,1,0,0,0,0,2H6.52a8.994,8.994,0,0,0,13.22,4.65,1.266,1.266,0,0,0,.24-1.97,1.254,1.254,0,0,0-1.57-.15A6.375,6.375,0,0,1,15,18.5Z" fill="#1c2641"/>
</svg>
