<svg id="quadradoContratar3" xmlns="http://www.w3.org/2000/svg" width="62.187" height="62.187" viewBox="0 0 62.187 62.187">
  <g id="Grupo_207" data-name="Grupo 207" transform="translate(0 0)">
    <path id="Retângulo_92" data-name="Retângulo 92" d="M10.588,0H51.6A10.589,10.589,0,0,1,62.187,10.589V51.6A10.588,10.588,0,0,1,51.6,62.187H10.588A10.588,10.588,0,0,1,0,51.6V10.588A10.588,10.588,0,0,1,10.588,0Z" transform="translate(0 0)" fill="#9c27b0"/>
  </g>
  <g id="Grupo_219" data-name="Grupo 219" transform="translate(3.761 15.9) rotate(-16)">
    <path id="Caminho_665" data-name="Caminho 665" d="M40.4,13.251A5.918,5.918,0,0,0,35.886,8.7l.3-2.054a.644.644,0,0,0-.157-.522.677.677,0,0,0-.506-.226h-.008c1.3-1.614,4.063-4.584,6.71-4.584a.663.663,0,0,0,.67-.655A.663.663,0,0,0,42.225,0c-3.845,0-7.5,4.668-8.393,5.894h-.32a.679.679,0,0,0-.419.144L29.926,8.513H26.139a23.786,23.786,0,0,0-12.064,3.354v-.079a1.327,1.327,0,0,0-1.34-1.31H10.724a1.327,1.327,0,0,0-1.34,1.31V15.23A42.167,42.167,0,0,0,.615,26.167c-.366.669-.553,1.061-.553,1.061a.644.644,0,0,0,.134.739l1.028,1L.048,31.845a.643.643,0,0,0,.067.61.675.675,0,0,0,.555.288H36.863a.674.674,0,0,0,.555-.288.643.643,0,0,0,.067-.61L36.374,29.13l6.151-3a.651.651,0,0,0,.358-.714ZM10.5,16.013a29.254,29.254,0,0,1,3.277-2.433A22.7,22.7,0,0,1,26.139,9.823h8.338a3.833,3.833,0,0,1,.576.041,4.628,4.628,0,0,1,4.028,3.644L40.8,21.916C31.7,25.5,14.565,25.669,5.276,25.759c-1.086.01-2.072.02-2.908.035A40.331,40.331,0,0,1,10.5,16.013ZM1.66,31.433l.8-1.965h32.6l.8,1.965Z" transform="translate(0 0)" fill="#fff"/>
    <path id="Caminho_666" data-name="Caminho 666" d="M9.077,9.173H29.99a2.191,2.191,0,0,0,1.567-.635,1.7,1.7,0,0,0,.482-1.477l-.963-5.5A2.006,2.006,0,0,0,29.02,0H20.14a11.381,11.381,0,0,0-3.88.667c-2.693.951-7.451,2.979-9.052,5.872a1.638,1.638,0,0,0,.112,1.771A2.139,2.139,0,0,0,9.077,9.173Zm-.625-2.1C9.9,4.457,14.755,2.516,16.779,1.8a9.847,9.847,0,0,1,3.36-.578h8.88a.67.67,0,0,1,.687.522l.962,5.5a.561.561,0,0,1-.161.495.715.715,0,0,1-.518.21h-7.8L20.72,6.655a2.217,2.217,0,0,0-1.473-.54H16.24a2.218,2.218,0,0,0-1.473.54L13.3,7.95H9.077a.7.7,0,0,1-.585-.288A.542.542,0,0,1,8.453,7.075ZM1.385,11.434a1.586,1.586,0,0,0,.172-.009L5.361,11a.632.632,0,0,0,.6-.683.685.685,0,0,0-.774-.531l-3.8.417L3.728,7.73a.563.563,0,0,0-.088-.861.756.756,0,0,0-.975.078L.321,9.425A1.109,1.109,0,0,0,.172,10.8,1.415,1.415,0,0,0,1.385,11.434ZM5.274,6.115a.74.74,0,0,0,.49-.179l.693-.612a.562.562,0,0,0,0-.865.759.759,0,0,0-.979,0l-.693.612a.562.562,0,0,0,0,.865A.74.74,0,0,0,5.274,6.115Z" transform="translate(5.128 12.934)" fill="#fff"/>
  </g>
</svg>
