<svg id="quadradoContratar4" xmlns="http://www.w3.org/2000/svg" width="61.635" height="61.635" viewBox="0 0 61.635 61.635">
  <path id="Retângulo_86" data-name="Retângulo 86" d="M10.588,0H51.047A10.588,10.588,0,0,1,61.635,10.588V51.047A10.588,10.588,0,0,1,51.047,61.635H10.589A10.589,10.589,0,0,1,0,51.046V10.588A10.588,10.588,0,0,1,10.588,0Z" transform="translate(0 0)" fill="#644d53"/>
  <path id="Caminho_632" data-name="Caminho 632" d="M64.663,295.445c1.194,0,2.216-.425,2.385-.957h-4.77C62.447,295.021,63.469,295.445,64.663,295.445Zm-5.95-7.8v2.03H87.718v-2.03Zm22.53,35.725v2.811h4.6v-2.811Zm5.7-31.4a2.25,2.25,0,0,1-4.259,1.013,2.247,2.247,0,0,1-4.016,0,2.25,2.25,0,1,1-3.072-3H69.427v4.5h-2.06c-.143.72-1.279,1.265-2.7,1.265s-2.561-.545-2.7-1.265H59.9v-4.5H58.713v5.975H69.461a10.319,10.319,0,0,1,7.879,0H87.718v-5.975H85.754A2.253,2.253,0,0,1,86.941,291.969Zm-.791,34.523H80.935v-3.118H58.713v4.687H87.718v-4.687H86.15Zm-3.468-35.535a2.268,2.268,0,0,1,.944-.971H81.738A2.269,2.269,0,0,1,82.682,290.956Zm-4.016,0a2.265,2.265,0,0,1,.944-.971H77.722A2.27,2.27,0,0,1,78.667,290.956Zm.084,14.57a1.419,1.419,0,0,0,1.418,1.417h2.859a9.663,9.663,0,0,0,0-2.835H80.169A1.419,1.419,0,0,0,78.751,305.527ZM83.6,303.8c.017.1.032.206.047.308a10.173,10.173,0,0,1,0,2.835c-.015.1-.03.206-.047.308A10.346,10.346,0,1,1,68.22,296.576H58.713v26.491H87.718V296.576H78.58A10.371,10.371,0,0,1,83.6,303.8Zm-6.383-7.225a9.56,9.56,0,0,0-2.035-.615,9.676,9.676,0,0,0-3.565,0,9.556,9.556,0,0,0-2.036.615,9.731,9.731,0,1,0,13.394,10.676H80.169c-.022,0-.043,0-.064,0a6.92,6.92,0,1,1,0-3.444c.021,0,.042,0,.064,0h2.807A9.761,9.761,0,0,0,77.218,296.576Zm-8.1-6.59H60.206v4.195H69.12Zm6.619,3.337a1.637,1.637,0,0,0,2.274-2.274Zm-.718-1.354a1.633,1.633,0,0,0,.283.92l2.273-2.273a1.637,1.637,0,0,0-2.556,1.353Zm4.017,0a1.632,1.632,0,0,0,.282.92l2.273-2.273a1.636,1.636,0,0,0-2.555,1.353Zm.716,1.354a1.637,1.637,0,0,0,2.272-2.274Zm3.3-1.354a1.632,1.632,0,0,0,.282.92l2.273-2.273a1.636,1.636,0,0,0-2.555,1.353Zm1.636,1.637a1.637,1.637,0,0,0,1.353-2.556l-2.273,2.274A1.626,1.626,0,0,0,84.691,293.605Zm-9.3-.588a.153.153,0,0,0,.217.217l2.314-2.313a.153.153,0,1,0-.217-.217Zm4.016,0a.153.153,0,0,0,.217.217l2.314-2.313a.153.153,0,1,0-.217-.217Zm6.33-2.313-2.314,2.313a.153.153,0,1,0,.217.217l2.313-2.313a.153.153,0,1,0-.217-.217Z" transform="translate(-42.688 -277.228)" fill="#fff"/>
</svg>
