<svg id="quadradoContratar2" xmlns="http://www.w3.org/2000/svg" width="62.172" height="62.173" viewBox="0 0 62.172 62.173">
  <path id="Retângulo_87" data-name="Retângulo 87" d="M10.589,0h41A10.588,10.588,0,0,1,62.172,10.588v41A10.588,10.588,0,0,1,51.584,62.173h-41A10.588,10.588,0,0,1,0,51.585v-41A10.589,10.589,0,0,1,10.589,0Z" transform="translate(0 0)" fill="#2196f3"/>
  <path id="Caminho_634" data-name="Caminho 634" d="M457.483,168v3.36h.615V168Zm1.229,0v3.36h.615V168Zm3.83-.614,4.913-1.446v-2.1a6.279,6.279,0,0,0-5.275-3.252H450.273l0,2.508,5.986,4.286Zm-6.288,3.974h.614V168h-.614Zm4.3-3.36h-.615v3.36h.615Zm-11.891-4.212h-1.229v2.026h1.229Zm1.833,3.236v2.434a2.126,2.126,0,0,1-.957,1.688l.568,1.09a3.343,3.343,0,0,0,1.618-2.767V165.81H453l-2.828-2.026h-.894v2.026S450.488,166.347,450.5,167.02ZM461.17,168v3.36h.616V168Zm1.229,3.36h.616V168H462.4Zm.7.615H462.4c1.419,2.645,4.562,10.327,4.562,21.092v3.6c-.008.137-.231,3.723-3.133,3.723H452.341c-2.9,0-3.124-3.576-3.133-3.726v-3.6c0-9.768,7.416-17.017,7.491-17.089l.17-.163v-3.84h-.614v3.578c-.372.366-7.66,7.682-7.66,17.514v3.612c.01.191.273,4.325,3.746,4.325h11.491c3.479,0,3.738-4.146,3.746-4.322v-3.616C467.578,182.343,464.574,174.761,463.1,171.971ZM452.76,186.092c-2.3,4.277-1.742,9.048,1.247,10.657s7.277-.556,9.578-4.834,1.744-9.049-1.246-10.657S455.061,181.814,452.76,186.092Z" transform="translate(-426.422 -149.708)" fill="#fff"/>
</svg>
