<svg xmlns="http://www.w3.org/2000/svg" width="65.635" height="65.635" viewBox="0 0 65.635 65.635">
  <g id="quadradoContratar1" transform="translate(2 2)">
    <rect id="Retângulo_94" data-name="Retângulo 94" width="61.635" height="61.635" rx="10.588" transform="translate(0)" fill="#fa726f" stroke="#1c2641" stroke-width="4"/>
    <path id="Caminho_648" data-name="Caminho 648" d="M71.817,67.615v-.006H71.51a.636.636,0,0,0-.634.635v5.371a.636.636,0,0,0,.634.635h1.269V72.384c-.05-.1-.1-.2-.146-.307A12.257,12.257,0,0,1,71.817,67.615Zm1.6,5.724v.911H74.53A3.992,3.992,0,0,1,73.413,73.339Zm.157-3.814A5.164,5.164,0,0,0,74.792,72.5l.2.176a2.535,2.535,0,0,0,.5.285V60.665a9.2,9.2,0,0,0-2.108,6.049A18.785,18.785,0,0,0,73.57,69.525Zm2.24,5.043a15.768,15.768,0,0,0,3.59.259,15.77,15.77,0,0,0,3.59-.259V73.03H75.81ZM64.68,65.692V37.349h-.634V65.692ZM76.62,31.806a7.542,7.542,0,0,1,1.767,4.908h0V61.121a1.04,1.04,0,0,0-.074.378.947.947,0,0,0,.015.142,1.023,1.023,0,1,0,1.963-.519V36.714h0A9.22,9.22,0,0,0,78,30.5a7.923,7.923,0,0,0-5.966-2.262H71.85v1.9h.185A6.108,6.108,0,0,1,76.62,31.806ZM62.778,65.692h.635V37.349h-.635ZM69.29,73.03H65.537v-.318a.637.637,0,0,0-.635-.635H64.68V66.326h-1.9v5.751h-.221a.636.636,0,0,0-.635.635v.318H58.167a.635.635,0,0,0-.634.634v1.2H69.926v-1.2A.636.636,0,0,0,69.29,73.03Zm8.778-15.4a6.342,6.342,0,0,0-2.169.98l-.309.229a9.937,9.937,0,0,0-3.471,7.875l.015.89a11.962,11.962,0,0,0,.79,4.346A4.9,4.9,0,0,0,73.538,73a3.675,3.675,0,0,0,1.217,1.015,4.572,4.572,0,0,0,.58.234l.159.043v-1l-.159-.063a2.891,2.891,0,0,1-.528-.3l-.234-.2a5.386,5.386,0,0,1-1.316-3.152,19.457,19.457,0,0,1-.187-2.859,9.453,9.453,0,0,1,2.306-6.4l.325-.326a5.68,5.68,0,0,1,2.367-1.378Zm8.615,9.084A9.942,9.942,0,0,0,83.21,58.84l-.311-.23A6.318,6.318,0,0,0,80.605,57.6v.976a5.662,5.662,0,0,1,2.495,1.41l.324.326a9.457,9.457,0,0,1,2.308,6.4,19.037,19.037,0,0,1-.189,2.859,5.364,5.364,0,0,1-1.315,3.152l-.234.2a2.905,2.905,0,0,1-.528.3l-.159.063v1l.159-.043.116-.043a3.7,3.7,0,0,0,.463-.191,3.847,3.847,0,0,0,.489-.31,3.79,3.79,0,0,0,.729-.7,4.976,4.976,0,0,0,.613-1.05,11.937,11.937,0,0,0,.79-4.346ZM84.009,72.5a5.164,5.164,0,0,0,1.22-2.971,18.87,18.87,0,0,0,.185-2.811,9.191,9.191,0,0,0-2.107-6.049V72.958a2.5,2.5,0,0,0,.5-.285Zm3.28-4.887h-.3v.006a12.263,12.263,0,0,1-.819,4.462c-.045.106-.093.207-.144.307V74.25h1.268a.637.637,0,0,0,.635-.635V68.244A.637.637,0,0,0,87.289,67.609ZM84.271,74.25h1.116v-.911A4.01,4.01,0,0,1,84.271,74.25ZM75.81,72.077h7.18V71.76H75.81Zm4.8-13.168v1.452a1.66,1.66,0,1,1-2.537.151v-1.57a5.4,5.4,0,0,0-2.148,1.28l-.11.109v7.279h7.18V60.33l-.11-.109A5.36,5.36,0,0,0,80.605,58.908Zm-4.8,12.534h7.18v-.318H75.81Zm0-.634h7.18V69.662H75.81Zm0,1.9h7.18v-.317H75.81ZM64.68,36.769a7.626,7.626,0,0,1,1.766-4.962,6.106,6.106,0,0,1,4.585-1.668h.185v-1.9h-.185A7.926,7.926,0,0,0,65.064,30.5a9.338,9.338,0,0,0-2.287,6.272Z" transform="translate(-41.642 -20.464)" fill="#fff"/>
  </g>
</svg>
