<svg xmlns="http://www.w3.org/2000/svg" width="212.546" height="147.554" viewBox="0 0 212.546 147.554">
  <g id="svgAnuncio" transform="translate(0 0)">
    <path id="Caminho_958" data-name="Caminho 958" d="M901.174,624.306c.86-6.913,5.144-13.724,11.737-15.974a32.1,32.1,0,0,0,0,22.036c1.013,2.74,2.425,5.683,1.472,8.445a7.175,7.175,0,0,1-3.665,3.855,21.31,21.31,0,0,1-5.2,1.6l-.35.289C902.352,638.186,900.314,631.219,901.174,624.306Z" transform="translate(-725.526 -498.165)" fill="#f0f0f0"/>
    <path id="Caminho_959" data-name="Caminho 959" d="M926.515,607.971a27.433,27.433,0,0,0-6.82,15.44,11.812,11.812,0,0,0,.134,3.7,6.775,6.775,0,0,0,1.685,3.143,14.022,14.022,0,0,1,2.177,2.6,4.149,4.149,0,0,1,.2,3.387,10.782,10.782,0,0,1-2.389,3.563,10.583,10.583,0,0,0-2.653,3.961c-.055.19-.347.093-.292-.1.791-2.727,3.438-4.276,4.7-6.732a4.2,4.2,0,0,0,.284-3.687,10.879,10.879,0,0,0-2.16-2.687,7.231,7.231,0,0,1-1.762-3.012,10.92,10.92,0,0,1-.276-3.68,26.614,26.614,0,0,1,1.944-8.088,27.923,27.923,0,0,1,5.02-8.045C926.443,607.594,926.645,607.825,926.515,607.971Z" transform="translate(-739.065 -497.673)" fill="#fff"/>
    <path id="Caminho_960" data-name="Caminho 960" d="M913.34,653.074a4.116,4.116,0,0,1-3.133-4.312.154.154,0,0,1,.307.015,3.811,3.811,0,0,0,2.923,4C913.628,652.828,913.531,653.12,913.34,653.074Z" transform="translate(-732.627 -529.195)" fill="#fff"/>
    <path id="Caminho_961" data-name="Caminho 961" d="M929.258,688.57A7.933,7.933,0,0,0,932.8,684c.056-.19.347-.093.292.1a8.252,8.252,0,0,1-3.7,4.747c-.17.1-.307-.174-.138-.274Z" transform="translate(-747.249 -556.363)" fill="#fff"/>
    <path id="Caminho_962" data-name="Caminho 962" d="M936.263,630.888a2.33,2.33,0,0,0,2.208-.112c.169-.1.306.172.138.274a2.611,2.611,0,0,1-2.442.129.159.159,0,0,1-.1-.194A.154.154,0,0,1,936.263,630.888Z" transform="translate(-752.55 -515.433)" fill="#fff"/>
    <path id="Caminho_963" data-name="Caminho 963" d="M946.565,659.591c-.1.067-.207.135-.311.2a30.682,30.682,0,0,0-3.923,3.063c-.1.086-.192.174-.285.262a32.344,32.344,0,0,0-7.025,9.616,31.415,31.415,0,0,0-1.721,4.452c-.635,2.107-1.156,4.441-2.412,6.165a5.385,5.385,0,0,1-.42.518H919.111l-.078-.036-.453.021c.018-.08.039-.163.057-.244.01-.047.023-.093.034-.14.008-.031.016-.062.021-.091,0-.01.005-.021.008-.029.005-.029.013-.054.018-.08q.171-.7.352-1.391s0,0,0-.005a46.184,46.184,0,0,1,3.887-10.2c.052-.1.1-.194.161-.29a29.98,29.98,0,0,1,2.692-4.084,26.5,26.5,0,0,1,1.765-2.019,22.038,22.038,0,0,1,5.514-4.13,17.5,17.5,0,0,1,13.143-1.661C946.344,659.521,946.455,659.555,946.565,659.591Z" transform="translate(-739.085 -537.077)" fill="#f0f0f0"/>
    <path id="Caminho_964" data-name="Caminho 964" d="M946.716,661.644a27.433,27.433,0,0,0-14.741,8.221,11.813,11.813,0,0,0-2.12,3.034,6.776,6.776,0,0,0-.547,3.524,14.02,14.02,0,0,1,.17,3.39,4.149,4.149,0,0,1-1.877,2.826,10.779,10.779,0,0,1-4.052,1.407,10.583,10.583,0,0,0-4.5,1.565c-.158.118-.333-.134-.175-.252,2.273-1.7,5.32-1.344,7.806-2.545a4.2,4.2,0,0,0,2.446-2.772,10.88,10.88,0,0,0-.107-3.445,7.23,7.23,0,0,1,.406-3.466,10.922,10.922,0,0,1,2-3.1,26.617,26.617,0,0,1,6.422-5.288,27.919,27.919,0,0,1,8.852-3.4c.193-.038.216.268.024.306Z" transform="translate(-739.261 -538.985)" fill="#fff"/>
    <path id="Caminho_965" data-name="Caminho 965" d="M978.124,674.182a4.116,4.116,0,0,1,.094-5.329c.131-.148.367.049.236.2a3.811,3.811,0,0,0-.078,4.957c.126.152-.127.326-.252.175Z" transform="translate(-784.226 -544.736)" fill="#fff"/>
    <path id="Caminho_966" data-name="Caminho 966" d="M963.342,719.359a7.933,7.933,0,0,0,5.579-1.515c.159-.118.333.135.175.252a8.251,8.251,0,0,1-5.809,1.565c-.2-.022-.141-.324.055-.3Z" transform="translate(-773.423 -582.483)" fill="#fff"/>
    <path id="Caminho_967" data-name="Caminho 967" d="M1012.809,670.59a2.33,2.33,0,0,0,1.83,1.24c.2.019.141.321-.055.3a2.611,2.611,0,0,1-2.028-1.367.159.159,0,0,1,.039-.214A.154.154,0,0,1,1012.809,670.59Z" transform="translate(-811.443 -546.063)" fill="#fff"/>
    <path id="Caminho_968" data-name="Caminho 968" d="M728.822,487.565a2.311,2.311,0,0,0-.37-3.525l2.1-7.94-4.045,1.361-1.374,7.332a2.324,2.324,0,0,0,3.689,2.773Z" transform="translate(-589.857 -396.325)" fill="#9e616a"/>
    <path id="Caminho_969" data-name="Caminho 969" d="M672.121,592.609H669.3l-1.34-10.869h4.159Z" transform="translate(-514.44 -448.034)" fill="#9e616a"/>
    <path id="Caminho_970" data-name="Caminho 970" d="M796.354,757.682h-9.086v-.115a3.537,3.537,0,0,1,3.536-3.536h5.55Z" transform="translate(-637.954 -610.376)" fill="#2f2e41"/>
    <path id="Caminho_971" data-name="Caminho 971" d="M614.121,592.609H611.3l-1.34-10.869h4.159Z" transform="translate(-469.77 -448.034)" fill="#9e616a"/>
    <path id="Caminho_972" data-name="Caminho 972" d="M738.354,757.682h-9.086v-.115a3.537,3.537,0,0,1,3.536-3.536h5.55Z" transform="translate(-593.284 -610.376)" fill="#2f2e41"/>
    <path id="Path_1095" data-name="Path 1095" d="M744.866,472.981l-1.082.3s-2.826,18.318-3.055,27.971.69,34.016.69,34.016h5.976l4.827-41.371,2.3,41.371h6.435s4.6-54.242,2.528-58.609S744.866,472.981,744.866,472.981Z" transform="translate(-602.083 -393.892)" fill="#2f2e41"/>
    <circle id="Ellipse_219" data-name="Ellipse 219" cx="5.4" cy="5.4" r="5.4" transform="translate(146.005 35.967)" fill="#9e616a"/>
    <path id="Path_1099" data-name="Path 1099" d="M770.365,344.761l-8.381-5.477-8.685.342-8.447,4.675,3.218,17.927-1.379,10.343s12.411-1.379,15.169.69a11.786,11.786,0,0,0,5.516,2.3l-.46-17.7Z" transform="translate(-605.287 -290.954)" fill="#3f3d56"/>
    <path id="Path_1101" data-name="Path 1101" d="M731.059,359.51l-.868-.18-.74.41s-2.069,2.758-2.069,5.286-2.528,26.891-2.528,26.891l4.6,2.069,3.677-19.077Z" transform="translate(-589.884 -306.393)" fill="#3f3d56"/>
    <path id="Path_1104" data-name="Path 1104" d="M779.7,277.837s1.412-2.7-1.695-2.945c0,0-2.649-2.4-5.349-.439a2.711,2.711,0,0,0-2.278,1.666,1.01,1.01,0,0,0-1.413.736,7.677,7.677,0,0,0,0,4.663,9.129,9.129,0,0,0,1.129,2.454s-1.393-4.631,2-4.877,7.183-2.364,7.465.336a9.331,9.331,0,0,0,.708,3.365S782.952,278.942,779.7,277.837Z" transform="translate(-623.571 -240.429)" fill="#2f2e41"/>
    <path id="Subtraction_1" data-name="Subtraction 1" d="M289.236,262.074H222.353v-50.1h66.883Z" transform="translate(-202.877 -192.901)" fill="#fff"/>
    <path id="Subtraction_1-2" data-name="Subtraction 1" d="M289.236,262.074H222.353v-50.1h66.883Zm-66.193-49.415v48.726h65.5V212.659Z" transform="translate(-202.877 -192.901)" fill="#e6e6e6"/>
    <g id="Group_41" data-name="Group 41" transform="translate(40.161 31.479)">
      <circle id="Ellipse_220" data-name="Ellipse 220" cx="12.735" cy="12.735" r="12.735" fill="#6c63ff"/>
      <path id="Path_1106" data-name="Path 1106" d="M351.51,298.8h-4.33v-4.33a1.019,1.019,0,0,0-1.019-1.019h0a1.019,1.019,0,0,0-1.019,1.019v4.33h-4.33a1.019,1.019,0,0,0-1.019,1.019h0a1.019,1.019,0,0,0,1.019,1.019h4.33v4.33a1.019,1.019,0,0,0,1.019,1.019h0a1.019,1.019,0,0,0,1.019-1.019v-4.33h4.33a1.019,1.019,0,0,0,1.019-1.019h0a1.019,1.019,0,0,0-1.019-1.019Z" transform="translate(-333.487 -287.136)" fill="#fff"/>
    </g>
    <path id="Caminho_973" data-name="Caminho 973" d="M162.609,147.864H137.617V129.005h24.992Z" transform="translate(-137.617 -129.005)" fill="#fff"/>
    <path id="Caminho_974" data-name="Caminho 974" d="M162.609,147.864H137.617V129.005h24.992Zm-24.533-.46H162.15v-17.94H138.077Z" transform="translate(-137.617 -129.005)" fill="#e6e6e6"/>
    <rect id="Rectangle_342" data-name="Rectangle 342" width="18.399" height="1.227" transform="translate(3.296 5.136)" fill="#e4e4e4"/>
    <rect id="Rectangle_343" data-name="Rectangle 343" width="18.399" height="1.227" transform="translate(3.296 8.816)" fill="#e4e4e4"/>
    <rect id="Rectangle_344" data-name="Rectangle 344" width="18.399" height="1.227" transform="translate(3.296 12.496)" fill="#e4e4e4"/>
    <path id="Caminho_975" data-name="Caminho 975" d="M885.609,706.864H860.617V688.005h24.992Z" transform="translate(-694.444 -559.526)" fill="#fff"/>
    <path id="Caminho_976" data-name="Caminho 976" d="M885.609,706.864H860.617V688.005h24.992Zm-24.533-.46H885.15v-17.94H861.077Z" transform="translate(-694.444 -559.526)" fill="#e6e6e6"/>
    <rect id="Rectangle_342-2" data-name="Rectangle 342" width="18.399" height="1.227" transform="translate(169.469 133.615)" fill="#e4e4e4"/>
    <rect id="Rectangle_343-2" data-name="Rectangle 343" width="18.399" height="1.227" transform="translate(169.469 137.295)" fill="#e4e4e4"/>
    <rect id="Rectangle_344-2" data-name="Rectangle 344" width="18.399" height="1.227" transform="translate(169.469 140.975)" fill="#e4e4e4"/>
    <path id="Caminho_977" data-name="Caminho 977" d="M840.765,519.942,822.1,503.324l12.539-14.087L853.3,505.855Z" transform="translate(-664.777 -406.443)" fill="#fff"/>
    <path id="Caminho_978" data-name="Caminho 978" d="M840.765,519.942,822.1,503.324l12.539-14.087L853.3,505.855Zm-18.019-16.655,17.981,16.006,11.928-13.4-17.981-16.006Z" transform="translate(-664.777 -406.443)" fill="#e6e6e6"/>
    <rect id="Rectangle_342-3" data-name="Rectangle 342" width="1.227" height="18.399" transform="translate(168.09 89.738) rotate(-48.326)" fill="#e4e4e4"/>
    <rect id="Rectangle_343-3" data-name="Rectangle 343" width="1.227" height="18.399" transform="translate(165.643 92.487) rotate(-48.326)" fill="#e4e4e4"/>
    <rect id="Rectangle_344-3" data-name="Rectangle 344" width="1.227" height="18.399" transform="translate(163.196 95.235) rotate(-48.326)" fill="#e4e4e4"/>
    <path id="Caminho_979" data-name="Caminho 979" d="M214.5,188.561H186.617V167.522H214.5Z" transform="translate(-175.355 -158.67)" fill="#fff"/>
    <path id="Caminho_980" data-name="Caminho 980" d="M214.5,188.561H186.617V167.522H214.5Zm-27.368-.513h26.855V168.035H187.13Z" transform="translate(-175.355 -158.67)" fill="#e6e6e6"/>
    <rect id="Rectangle_342-4" data-name="Rectangle 342" width="20.526" height="1.368" transform="translate(14.939 14.582)" fill="#6c63ff"/>
    <rect id="Rectangle_343-4" data-name="Rectangle 343" width="20.526" height="1.368" transform="translate(14.939 18.687)" fill="#6c63ff"/>
    <rect id="Rectangle_344-4" data-name="Rectangle 344" width="20.526" height="1.368" transform="translate(14.939 22.793)" fill="#6c63ff"/>
    <path id="Caminho_981" data-name="Caminho 981" d="M480.164,391.111H437.617V359.005h42.547Z" transform="translate(-368.666 -306.143)" fill="#fff"/>
    <path id="Caminho_982" data-name="Caminho 982" d="M480.164,391.111H437.617V359.005h42.547Zm-41.764-.783h40.982V359.788H438.4Z" transform="translate(-368.666 -306.143)" fill="#e6e6e6"/>
    <rect id="Rectangle_342-5" data-name="Rectangle 342" width="31.323" height="2.088" transform="translate(74.563 61.607)" fill="#6c63ff"/>
    <rect id="Rectangle_343-5" data-name="Rectangle 343" width="31.323" height="2.088" transform="translate(74.563 67.871)" fill="#6c63ff"/>
    <rect id="Rectangle_344-5" data-name="Rectangle 344" width="31.323" height="2.088" transform="translate(74.563 74.136)" fill="#6c63ff"/>
    <path id="Caminho_983" data-name="Caminho 983" d="M690.369,769.161H579.979a.274.274,0,0,1,0-.547h110.39a.274.274,0,1,1,0,.547Z" transform="translate(-478.097 -621.608)" fill="#cacaca"/>
    <path id="Caminho_984" data-name="Caminho 984" d="M842.441,486.614a2.311,2.311,0,0,1,1.264-3.311l.014-8.213,3.559,2.356-.559,7.438a2.324,2.324,0,0,1-4.279,1.73Z" transform="translate(-680.22 -395.547)" fill="#9e616a"/>
    <path id="Path_1100" data-name="Path 1100" d="M839.462,361.979l1.59-1.533,1.168.843s1.149,1.379,2.069,5.516,0,26.891,0,26.891l-5.056-.69.69-11.952-2.069-10.113Z" transform="translate(-676.912 -307.252)" fill="#3f3d56"/>
  </g>
</svg>
