<svg xmlns="http://www.w3.org/2000/svg" width="149.636" height="193.202" viewBox="0 0 149.636 193.202">
  <g id="tophoto" transform="translate(296.114 -406.908) rotate(90)" opacity="0.44">
    <path id="Caminho_41" data-name="Caminho 41" d="M600.111,146.478c-5.035,6.074-13.113,12.042-23.324,17.162a120.58,120.58,0,0,1-37.261,11.65q-2.454.3-4.879.6c-10.111,1.245-19.663,2.422-27.8,4.594-9.117,2.437-15.129,5.774-18.925,10.5-4.691,5.847-5.4,15.579-6.15,25.881-.706,9.664-1.436,19.658-5.32,28.124-6.983,15.211-20.052,18.951-32.694,22.571-6.848,1.96-13.316,3.811-18.813,7.369-9.679,6.262-13.943,13.781-17.7,21.179v-.724c3.708-7.248,8.022-14.581,17.521-20.729,5.538-3.584,12.03-5.444,18.9-7.41,12.571-3.6,25.567-7.319,32.488-22.391,3.861-8.416,4.588-18.378,5.291-28.009.753-10.356,1.469-20.137,6.221-26.064,3.84-4.788,9.908-8.16,19.1-10.615,8.16-2.181,17.721-3.358,27.844-4.6q2.423-.3,4.879-.606a120.152,120.152,0,0,0,37.155-11.615c10.055-5.041,18.03-10.9,23.045-16.871Z" transform="translate(0 0)" fill="#fff" style="mix-blend-mode: soft-light;isolation: isolate"/>
    <path id="Caminho_42" data-name="Caminho 42" d="M542.1,146.478c-7.416,19.178-25.831,28.942-48.237,32.894-16.532,2.916-36.237,6.633-41.307,26.193-2.834,10.935-5.241,20.3-20.155,28.215,11.229-7.13,14.69-16.7,16.238-30.2,2.46-21.488,16.312-30.145,29.133-32.844,16.75-3.528,34.289-12.813,37.644-24.26Z" transform="translate(48.874 0)" fill="#77c0b4"/>
    <path id="Caminho_43" data-name="Caminho 43" d="M571.757,146.478c-18.9,6.995-37.791,4.753-45.421,27.312s-4.358,37.455-31.976,41.454-46.222,12.7-52.425,29.684c-5.309,14.543-24.234,29.316-34.689,27.006V171.274a24.8,24.8,0,0,1,24.8-24.8Z" transform="translate(0 0)" fill="#60c0e1"/>
    <path id="Caminho_44" data-name="Caminho 44" d="M545.664,146.478c0,17.127-14.873,34.966-55.577,34.154-31.617-.627-41.593,10.135-46.457,24.325-6.2,18.08,12.162,46.619-36.384,50.053V174.843a28.367,28.367,0,0,1,28.365-28.365Z" transform="translate(0 0)" fill="#60c0e1"/>
    <path id="Caminho_45" data-name="Caminho 45" d="M526.975,146.478c-8.181,20.3-67.607,15.685-86.54,39.094-30.354,37.529-10.579,69.437-33.188,103.052l-.338-142.147H526.975Z" transform="translate(0 0)" fill="#82cdef"/>
    <path id="Caminho_46" data-name="Caminho 46" d="M435.573,157.408c-10.026.127-19.272,8.01-13.76,18.934s26.061,12.942,31.337,4.4S452.874,157.184,435.573,157.408Z" transform="translate(25.095 21.229)" fill="#82cdef"/>
    <g id="Grupo_6" data-name="Grupo 6" transform="translate(407.246 146.478)" style="mix-blend-mode: soft-light;isolation: isolate">
      <path id="Caminho_47" data-name="Caminho 47" d="M454.607,176.794a59.779,59.779,0,0,1,1.357,12.6c-.009.185-.018.368-.03.55-.015.283-.038.565-.065.848-.009.118-.021.238-.035.359-.035.324-.077.65-.127.974-.021.144-.044.291-.068.436-.05.282-.1.562-.162.842-.041.182-.079.362-.124.542-.053.224-.112.447-.174.671s-.124.43-.191.642a21.123,21.123,0,0,1-4.864,8.157c-4.129,4.444-10.579,8.4-19.716,12.08a185.461,185.461,0,0,1-23.162,7.345v-.115a185.129,185.129,0,0,0,23.121-7.33c9.123-3.678,15.558-7.622,19.678-12.053a21.019,21.019,0,0,0,4.9-8.3c.065-.218.126-.435.185-.656s.118-.465.171-.7c.044-.185.085-.374.121-.562.059-.294.115-.594.159-.892.026-.156.047-.312.068-.468.053-.365.091-.727.124-1.092.012-.141.024-.283.032-.424.032-.409.05-.821.062-1.23.006-.241.009-.483.009-.721a66.018,66.018,0,0,0-1.374-11.483q-.2-1.143-.4-2.3c-.044-.256-.088-.512-.132-.771-.053-.33-.106-.659-.159-.992s-.1-.65-.15-.974c-.035-.23-.068-.456-.1-.686-.056-.4-.112-.809-.159-1.218l-.038-.3c-.038-.332-.077-.665-.109-1-.018-.185-.035-.368-.053-.553-.053-.6-.1-1.2-.129-1.807a35.3,35.3,0,0,1,.2-6.412,27.951,27.951,0,0,1,5.659-13.325h.1a28.066,28.066,0,0,0-5.647,13.34,34.413,34.413,0,0,0-.244,5.315c.021.727.059,1.448.115,2.169v0l.012.156q.062.755.141,1.5l.062.536c.044.394.094.789.147,1.183.038.268.074.533.115.8.044.318.091.639.144.959.053.353.112.706.168,1.056.041.256.085.509.13.762C454.306,175.108,454.456,175.955,454.607,176.794Z" transform="translate(-407.246 -146.478)" fill="#fff"/>
      <path id="Caminho_48" data-name="Caminho 48" d="M426.618,172.011a201.494,201.494,0,0,1-19.372,6.268v-.088A201.149,201.149,0,0,0,426.618,172.011Z" transform="translate(-407.246 -96.874)" fill="#fff"/>
      <path id="Caminho_49" data-name="Caminho 49" d="M423.014,167.589c0,.33,0,.659.006.986,0,.232.012.462.021.692q.018.538.053,1.077l0,.038c.032.55.076,1.1.129,1.648.015.156.03.315.047.471.041.4.088.806.135,1.207.035.282.071.565.112.848s.082.6.124.892c.177,1.189.374,2.366.577,3.537.471,2.725.974,5.409,1.289,8.048.05.424.1.845.135,1.265.035.368.065.733.091,1.1.068,1.018.1,2.03.079,3.034,0,.15-.006.3-.012.45-.012.332-.029.662-.053.995-.012.168-.026.333-.041.5q.018-.269.035-.539v0c.021-.38.035-.762.041-1.145,0-.188,0-.38,0-.568,0-.721-.029-1.445-.079-2.175q-.026-.463-.071-.927c-.127-1.433-.327-2.878-.562-4.335-.277-1.7-.6-3.414-.912-5.144-.218-1.195-.43-2.4-.618-3.611-.05-.3-.094-.6-.138-.9-.032-.215-.062-.43-.091-.644-.059-.412-.112-.827-.159-1.239l-.006-.053c-.018-.135-.032-.271-.05-.409-.05-.453-.094-.906-.132-1.362-.05-.589-.091-1.177-.118-1.769v0c-.032-.662-.047-1.33-.044-2,0-.441.012-.886.032-1.336.015-.359.035-.721.065-1.083q.1-1.346.327-2.719a30.925,30.925,0,0,1,6.715-14.378q.556-.68,1.154-1.333c.068-.077.135-.15.2-.224h.153q-1.037,1.121-1.96,2.316a30.693,30.693,0,0,0-5.994,13.3,32.773,32.773,0,0,0-.483,5.212v0C423.014,167.4,423.014,167.5,423.014,167.589Z" transform="translate(-377.019 -146.478)" fill="#fff"/>
      <path id="Caminho_50" data-name="Caminho 50" d="M442.975,163.614c.035-.282.068-.562.091-.845-.024.294-.05.589-.085.883-.024.224-.053.444-.085.665s-.071.471-.115.706c-.044.265-.1.533-.156.8a20.965,20.965,0,0,1-4.435,9.011,29.651,29.651,0,0,1-2.31,2.507c-3.873,3.743-9.4,7.2-16.835,10.461q-2.459,1.077-5.176,2.122,3.306-1.284,6.2-2.61c9.022-4.123,14.911-8.51,18.527-13.2a21.257,21.257,0,0,0,4.005-8.39c.059-.259.112-.518.162-.777.044-.23.082-.459.121-.686S442.945,163.828,442.975,163.614Z" transform="translate(-394.381 -114.829)" fill="#fff"/>
      <path id="Caminho_51" data-name="Caminho 51" d="M423.79,162.8l.006-.044v0Z" transform="translate(-375.105 -114.858)" fill="#fff"/>
      <path id="Caminho_52" data-name="Caminho 52" d="M423.322,174.094c-4.732,1.8-10.067,3.57-16.076,5.338v-.118C413.2,177.6,418.543,175.874,423.322,174.094Z" transform="translate(-407.246 -92.827)" fill="#fff"/>
      <path id="Caminho_53" data-name="Caminho 53" d="M445.434,163.3l0-.218c.006.091.006.185.009.277.006.265.009.527.009.792s-.006.556-.015.836c-.009.3-.024.594-.044.889-.012.2-.026.4-.044.594q-.049.521-.115,1.042a21.29,21.29,0,0,1-3.926,9.846,28.873,28.873,0,0,1-2.16,2.654c-3.67,4-9.064,7.707-16.453,11.224-2.993,1.421-6.286,2.807-9.908,4.161a117.642,117.642,0,0,0,11.918-5.235c8.9-4.576,14.237-9.367,17.333-14.331a21.811,21.811,0,0,0,3.137-8.6c.047-.33.088-.662.121-.995.021-.2.041-.406.056-.609.021-.28.038-.553.053-.833s.021-.539.026-.809h0C445.434,163.759,445.434,163.532,445.434,163.3Z" transform="translate(-396.487 -114.215)" fill="#fff"/>
      <path id="Caminho_54" data-name="Caminho 54" d="M434.48,146.478a36.3,36.3,0,0,0-4.37,4.747,33.773,33.773,0,0,0-6.259,13.136,32.189,32.189,0,0,0-.683,4.6c-.015.206-.029.412-.041.615-.012.247-.024.488-.029.733l0,.074c-.012.368-.018.733-.015,1.092q0,.6.018,1.209l.026.627.006.118c.026.533.062,1.059.109,1.586.012.179.029.362.047.541.035.371.073.742.118,1.112.174,1.513.4,3.016.653,4.505.459,2.71.986,5.379,1.369,8.007.053.356.1.712.147,1.068.026.182.047.362.068.544.056.441.1.886.144,1.327.012.1.021.206.03.309.085.977.138,1.951.147,2.919-.024-.818-.079-1.642-.159-2.469l-.018-.191c-.053-.509-.112-1.024-.179-1.536-.021-.162-.041-.321-.065-.48-.147-1.071-.327-2.148-.521-3.237-.306-1.7-.645-3.428-.968-5.173-.288-1.563-.562-3.143-.78-4.735-.047-.359-.094-.718-.135-1.077l-.006-.044-.006-.047c-.068-.6-.13-1.2-.177-1.8-.047-.574-.085-1.151-.106-1.727-.038-.88-.047-1.766-.018-2.654.006-.209.012-.418.024-.627v0c.026-.5.065-1.015.118-1.527.015-.144.029-.288.047-.433l.015-.129c.1-.8.229-1.616.391-2.437a34.234,34.234,0,0,1,6.963-14.419q.56-.693,1.151-1.357a36.191,36.191,0,0,1,2.725-2.769Z" transform="translate(-377.017 -146.478)" fill="#fff"/>
      <path id="Caminho_55" data-name="Caminho 55" d="M431.945,174.54a185.423,185.423,0,0,1-24.7,9.379v-.188A183.029,183.029,0,0,0,431.945,174.54Z" transform="translate(-407.246 -91.961)" fill="#fff"/>
      <path id="Caminho_56" data-name="Caminho 56" d="M440.129,164.98c0,.068,0,.132,0,.2q0,.781-.035,1.563a21.9,21.9,0,0,1-3.346,10.791,26.955,26.955,0,0,1-2.007,2.8c-3.469,4.252-8.728,8.207-16.07,11.989q-1.461.75-3.022,1.489,3.266-1.571,6.018-3.152c8.772-5.044,13.584-10.211,16.141-15.458a22.826,22.826,0,0,0,2.251-8.652c.032-.48.053-.956.059-1.436,0-.068,0-.132,0-.2,0-.1,0-.206,0-.309C440.126,164.733,440.126,164.856,440.129,164.98Z" transform="translate(-390.923 -111.248)" fill="#fff"/>
      <path id="Caminho_57" data-name="Caminho 57" d="M437.922,146.478a38.654,38.654,0,0,0-13.71,20.155,33.261,33.261,0,0,0-.824,4.046l-.053.412c-.038.315-.074.627-.1.939-.032.356-.059.709-.076,1.062l-.009.129-.009.206c0,.085-.006.171-.009.253-.029.886-.024,1.766.012,2.643v.041l0,.085q.031.742.088,1.474c.135,1.83.38,3.643.674,5.435.444,2.7.995,5.353,1.445,7.969.027.144.05.288.074.436q.035.181.062.362c.094.571.185,1.139.265,1.707v0l.006.038q.119.848.215,1.692l.006.059c.115,1.065.2,2.122.229,3.178q.018.516.018,1.033c-.009-.43-.029-.865-.056-1.3q-.062-1.059-.182-2.122l-.021-.165h0c-.071-.624-.156-1.248-.25-1.875v0c-.091-.6-.194-1.207-.3-1.813l-.062-.33c-.121-.68-.25-1.36-.383-2.042-.336-1.716-.695-3.449-1.024-5.2-.321-1.695-.609-3.408-.818-5.138-.012-.1-.026-.2-.038-.3q-.1-.9-.174-1.8-.066-.839-.1-1.683c-.038-1.071-.035-2.148.026-3.231V172.8c.026-.486.068-.983.124-1.483.035-.324.079-.65.127-.977l.006-.035c.021-.144.041-.288.068-.436.018-.124.041-.25.065-.377q.159-.923.382-1.863a38.018,38.018,0,0,1,7.21-14.464c.371-.468.753-.927,1.142-1.377a38.208,38.208,0,0,1,5.612-5.315Z" transform="translate(-377.027 -146.478)" fill="#fff"/>
      <path id="Caminho_58" data-name="Caminho 58" d="M452.226,172.135q.583-.8,1.077-1.607c-2.475,4.04-6.477,8.075-12.789,12.109-7.542,4.823-18.26,9.632-33.268,14.572v-.271c12.162-3.94,21.785-7.884,29.289-12.054C443.824,180.831,448.956,176.64,452.226,172.135Z" transform="translate(-407.246 -99.755)" fill="#fff"/>
      <path id="Caminho_59" data-name="Caminho 59" d="M424.829,169.181c.03-.088.062-.177.091-.262a22.532,22.532,0,0,1-1.477,3.39c-.135.253-.28.506-.427.759A24.375,24.375,0,0,0,424.829,169.181Z" transform="translate(-376.609 -102.881)" fill="#fff"/>
      <path id="Caminho_60" data-name="Caminho 60" d="M441.914,146.478a38.178,38.178,0,0,0-10.538,9.6,42.7,42.7,0,0,0-6.789,12.827,33.1,33.1,0,0,0-.918,3.534c-.024.1-.044.209-.062.312-.062.324-.118.641-.168.956-.035.227-.068.453-.094.677s-.053.421-.074.63c-.032.294-.056.586-.077.874l-.026.409,0,.068,0,.041c-.053.965-.059,1.927-.026,2.887,0,.185.012.371.021.556a50.367,50.367,0,0,0,.615,5.7c.409,2.56.951,5.088,1.451,7.575l.059.28.012.074q.181.9.35,1.786l.006.038c.112.589.215,1.174.315,1.76l.032.191c.071.43.135.856.2,1.286.015.088.026.177.038.265.156,1.121.279,2.236.353,3.352.056.88.082,1.76.071,2.637a24.4,24.4,0,0,1-1.245,7.572,24.1,24.1,0,0,0,1.148-8.293c-.026-1.118-.115-2.239-.244-3.367-.018-.165-.038-.33-.059-.494l-.009-.059c-.085-.668-.182-1.336-.294-2.01-.012-.082-.026-.165-.041-.247q-.163-.962-.347-1.928l-.012-.062q-.19-.976-.394-1.96l-.056-.259c-.05-.247-.1-.494-.156-.742-.365-1.724-.745-3.47-1.08-5.232-.294-1.539-.559-3.093-.75-4.661-.156-1.262-.265-2.537-.306-3.817-.035-1.051-.026-2.107.038-3.169.012-.212.026-.421.044-.633.024-.288.053-.577.088-.871.047-.412.106-.827.177-1.251l.015-.088.015-.077c.035-.215.077-.427.118-.644.047-.238.1-.483.153-.724.021-.1.041-.2.068-.3.094-.409.2-.821.312-1.236a42.4,42.4,0,0,1,7.457-14.5c.371-.48.753-.945,1.139-1.4a38.245,38.245,0,0,1,8.969-7.86Z" transform="translate(-377.05 -146.478)" fill="#fff"/>
      <path id="Caminho_61" data-name="Caminho 61" d="M477.086,146.478c-5.318,2.139-10.491,6.292-14.9,12.027a46.744,46.744,0,0,0-8.028,15.753c-.024.085-.047.171-.068.256-.079.315-.156.627-.224.933-.035.162-.071.324-.1.483-.05.25-.1.494-.138.739-.05.288-.094.577-.132.859-.018.132-.032.265-.047.4-.009.059-.015.115-.021.168-.041.4-.077.8-.1,1.2-.009.085-.012.171-.018.256a33.116,33.116,0,0,0,0,3.5,66.94,66.94,0,0,0,1.816,11.333l.053.232.23,1.009.218.965.018.082c.138.609.277,1.221.406,1.83l.053.232q.172.808.335,1.613l.012.062c.021.1.041.194.059.294.094.483.185.965.271,1.451,2.71,15.449-.391,30.475-49.535,47.417v-.344c12.992-4.485,23.095-8.928,30.831-13.566,7.233-4.335,12.242-8.755,15.308-13.513,3.764-5.838,4.2-11.547,3.467-17.356-.029-.238-.062-.48-.1-.721-.1-.7-.212-1.4-.339-2.1l-.035-.188c-.121-.668-.253-1.336-.391-2.007l-.059-.28q-.212-1.011-.441-2.028l-.024-.1c-.124-.553-.25-1.112-.377-1.671-.035-.144-.068-.291-.1-.438-.018-.071-.032-.144-.047-.218-1.162-5.114-2.3-10.382-1.936-15.805.026-.391.059-.783.1-1.174.012-.1.024-.209.035-.312.056-.453.127-.918.212-1.389l.009-.035,0-.027c.047-.244.094-.491.15-.742.035-.174.076-.35.118-.527.035-.159.074-.315.115-.474.068-.268.138-.539.215-.812l.071-.247a47.722,47.722,0,0,1,7.9-15.19,37.692,37.692,0,0,1,14.313-11.827Z" transform="translate(-407.246 -146.478)" fill="#fff"/>
    </g>
  </g>
</svg>
